<svg xmlns="http://www.w3.org/2000/svg" xmlns:xlink="http://www.w3.org/1999/xlink" width="89" height="60" viewBox="0 0 89 60">
    <defs>
        <path id="prefix__a" d="M43.44 29.297v6.46h5.4v3.52h-5.4v11.12l.006.208c.047.812.047.812.474 1.292.48.54.48.54 1.28.54.46 0 .46 0 .77-.11s.31-.11.54-.23c.23-.12.23-.12.41-.23.18-.11.18-.11.36-.11.22 0 .22 0 .36.11.14.11.14.11.3.33l1.48 2.4-.275.218c-.98.74-.98.74-2.205 1.142-1.4.46-1.4.46-2.9.46-2.66 0-2.66 0-4.1-1.51-1.44-1.51-1.44-1.51-1.44-4.17v-11.46h-2.08l-.13-.007c-.318-.036-.318-.036-.56-.253-.29-.26-.29-.26-.29-.78v-1.96l3.3-.54 1.04-5.6.032-.128c.096-.309.096-.309.338-.492.29-.22.29-.22.73-.22h2.56zm-18.67 5.96c1.94 0 1.94 0 3.57.62s1.63.62 2.81 1.81c1.18 1.19 1.18 1.19 1.84 2.92.66 1.73.66 1.73.66 3.95 0 .56 0 .56-.05.93s-.05.37-.18.58c-.13.21-.13.21-.35.3-.22.09-.22.09-.56.09H19.83l.03.366c.277 2.881.277 2.881 1.67 4.274 1.48 1.48 1.48 1.48 3.92 1.48 1.2 0 1.2 0 2.07-.28.87-.28.87-.28 1.52-.62.65-.34.65-.34 1.14-.62.49-.28.49-.28.95-.28.3 0 .3 0 .52.12.22.12.22.12.38.34l1.44 1.8-.238.268c-.728.785-.728.785-1.602 1.342-1.02.65-1.02.65-2.13 1.04-1.11.39-1.11.39-2.26.55-1.15.16-1.15.16-2.23.16-2.14 0-2.14 0-3.98-.71-1.84-.71-1.84-.71-3.2-2.1-1.36-1.39-1.36-1.39-2.14-3.44s-.78-2.05-.78-4.75c0-2.1 0-2.1.68-3.95s.68-1.85 1.95-3.22 1.27-1.37 3.1-2.17c1.83-.8 1.83-.8 4.13-.8zm36.22 0c2.3 0 2.3 0 4.03.74 1.73.74 1.73.74 3.11 2.12l-1.3 1.8-.11.133c-.162.187-.162.187-.32.307-.21.16-.21.16-.61.16-.38 0-.38 0-.74-.23s-.36-.23-.86-.52c-.5-.29-.5-.29-1.19-.52-.69-.23-.69-.23-1.71-.23-1.3 0-1.3 0-2.28.47-.98.47-.98.47-1.63 1.35-.65.88-.65.88-.97 2.13-.32 1.25-.32 1.25-.32 2.83 0 1.64 0 1.64.35 2.92s.35 1.28 1.01 2.15c.66.87.66.87 1.6 1.32.94.45.94.45 2.12.45 1.18 0 1.18 0 1.91-.29s.73-.29 1.23-.64c.5-.35.5-.35.87-.64.37-.29.37-.29.83-.29.6 0 .6 0 .9.46l1.42 1.8-.277.311c-.703.757-.703.757-1.503 1.299-.96.65-.96.65-1.99 1.04s-1.03.39-2.13.55c-1.1.16-1.1.16-2.18.16-1.9 0-1.9 0-3.58-.71-1.68-.71-1.68-.71-2.93-2.07-1.25-1.36-1.25-1.36-1.98-3.33s-.73-1.97-.73-4.49c0-2.26 0-2.26.65-4.19.65-1.93.65-1.93 1.91-3.34 1.26-1.41 1.26-1.41 3.12-2.21s1.86-.8 4.28-.8zm-49.81-8.58c1.42 0 1.42 0 2.64.38l-.1 2.48-.015.123c-.08.473-.08.473-.525.597-.5.14-.5.14-1.16.14-.88 0-.88 0-1.57.19-.69.19-.69.19-1.17.66-.48.47-.48.47-.73 1.24s-.25.77-.25 1.91v1.36h5.34v3.52H8.46v16.82H3.52v-16.8l-1.78-.28-.187-.039c-.451-.111-.451-.111-.743-.361-.35-.3-.35-.3-.35-.84v-2.02h3.06v-1.52l.007-.387c.052-1.529.052-1.529.523-2.773.53-1.4.53-1.4 1.52-2.38s.99-.98 2.41-1.5c1.42-.52 1.42-.52 3.2-.52zm64.88-.3v11.42l.304-.278c1.076-.95 1.076-.95 2.336-1.562 1.44-.7 1.44-.7 3.38-.7 1.68 0 1.68 0 2.98.57s1.3.57 2.17 1.6c.87 1.03.87 1.03 1.32 2.46.45 1.43.45 1.43.45 3.15v13.06h-4.94v-13.06l-.005-.284c-.062-1.675-.062-1.675-.865-2.626-.87-1.03-.87-1.03-2.61-1.03-1.28 0-1.28 0-2.4.58-1.12.58-1.12.58-2.12 1.58v14.84h-4.94v-29.72h4.94zm-51.19 12.42c-2.16 0-2.16 0-3.38 1.22-1.22 1.22-1.22 1.22-1.56 3.46h9.28c0-.96 0-.96-.26-1.81-.26-.85-.26-.85-.8-1.49s-.54-.64-1.36-1.01c-.82-.37-.82-.37-1.92-.37zM40.164 8.28l1.215 1.028c4.308 3.64 7.153 6.041 7.153 8.986 0 2.401-2.026 4.287-4.602 4.287-1.456 0-2.855-.63-3.766-1.628-.911.997-2.31 1.628-3.766 1.628-2.577 0-4.601-1.886-4.601-4.287 0-2.945 2.843-5.345 7.153-8.994l1.214-1.02zm11.93-1.506c1.752 0 3.182 1.296 3.279 2.929l.005.176v.565c0 1.654-1.37 3.008-3.097 3.1l-.187.004h-.279c-1.751 0-3.182-1.297-3.278-2.928l-.005-.176v-.565c0-1.656 1.37-3.009 3.097-3.1l.186-.005h.28zm-22.82 0c1.751 0 3.182 1.296 3.278 2.929l.005.176v.565c0 1.654-1.37 3.008-3.097 3.1l-.186.004h-.28c-1.751 0-3.181-1.297-3.278-2.928l-.005-.176v-.565c0-1.656 1.37-3.009 3.097-3.1l.187-.005h.279zM45.249 0c1.75 0 3.18 1.295 3.277 2.929l.006.176v.564c0 1.655-1.372 3.009-3.097 3.1l-.186.005h-.281c-1.751 0-3.18-1.297-3.277-2.929l-.006-.176v-.564c0-1.656 1.37-3.009 3.097-3.1L44.968 0h.281zM35.36 0c1.814 0 3.283 1.39 3.283 3.105v.564c0 1.714-1.47 3.105-3.283 3.105h-.28c-1.813 0-3.283-1.391-3.283-3.105v-.564c0-1.716 1.47-3.105 3.282-3.105h.281z"/>
    </defs>
    <g fill="none" fill-rule="evenodd" transform="translate(0 1.338)">
        <mask id="prefix__b" fill="#fff">
            <use xlink:href="#prefix__a"/>
        </mask>
        <use fill="#E17459" xlink:href="#prefix__a"/>
        <g fill="#101010" mask="url(#prefix__b)">
            <path d="M0 0H251.799V182.845H0z" transform="translate(-88.686 -63.362)"/>
        </g>
    </g>
</svg>
