<svg xmlns="http://www.w3.org/2000/svg" xmlns:xlink="http://www.w3.org/1999/xlink" width="20" height="20" viewBox="0 0 20 20">
    <defs>
        <path id="prefix__a" d="M19 11c.552 0 1 .448 1 1v7c0 .552-.448 1-1 1H1c-.552 0-1-.448-1-1v-7c0-.552.448-1 1-1h18zm-1.3 1.8H2.3c-.245 0-.45.177-.492.41l-.008.09v4.4c0 .245.177.45.41.492l.09.008h15.4c.245 0 .45-.177.492-.41l.008-.09v-4.4c0-.276-.224-.5-.5-.5zM19 0c.552 0 1 .448 1 1v7c0 .552-.448 1-1 1H1c-.552 0-1-.448-1-1V1c0-.552.448-1 1-1h18zm-1.3 1.8H2.3c-.245 0-.45.177-.492.41L1.8 2.3v4.4c0 .245.177.45.41.492l.09.008h15.4c.245 0 .45-.177.492-.41l.008-.09V2.3c0-.276-.224-.5-.5-.5z"/>
    </defs>
    <g fill="none" fill-rule="evenodd">
        <mask id="prefix__b" fill="#fff">
            <use xlink:href="#prefix__a"/>
        </mask>
        <use fill="#000" xlink:href="#prefix__a"/>
        <g fill="#E17459" mask="url(#prefix__b)">
            <path d="M0 0H48V48H0z" transform="translate(-14 -14)"/>
        </g>
    </g>
</svg>
