<svg xmlns="http://www.w3.org/2000/svg" width="1024" height="1742" viewBox="0 0 1024 1742">
    <g fill="none" fill-rule="evenodd">
        <path fill="#FFFBF3" d="M1024 .002v321.921c-160.802 101.26-279.845 146.688-357.128 136.285-271.014-36.482-310.535-81.19-404.014-15.558C163.078 512.705 75.458 622.155 0 771.002v-771h213.634C310.79 65.71 415.39 132.085 511.002 132.085 633.744 132.085 778.606 53.59 896.336 0L1024 .002z"/>
        <path fill="#FFF5E2" d="M0 213.57c39.428-18.683 73.238-19.395 101.431-2.138C225.897 287.618 378.06 418.085 512.5 418.085c131.418 0 288.122-89.46 410.009-142.575 30.112-13.122 63.776-17.693 100.991-13.713l.501 346.698c-68.075 38.556-140.867 52.633-218.376 42.23-271.808-36.482-448.244 12.294-541.997 77.925C163.555 798.705 75.68 908.155 0 1057.002V213.57z"/>
        <path fill="#F1B573" d="M0 387.993c40.037-18.964 74.131-19.818 102.283-2.561 124.283 76.186 264.315 159.593 398.56 159.593 131.226 0 299.61-74.413 421.318-127.527 30.069-13.122 64.015-17.825 101.84-14.11l-.501 300.236c-67.972 37.783-140.655 51.473-218.052 41.07-271.41-36.48-447.59 92.325-541.205 157.956C164.316 972.705 76.235 1082.05 0 1230.69V387.993z"/>
        <path fill="#FFF5E2" d="M0 735.708c161.898 20.64 332.731 30.959 512.5 30.959s350.269-49.889 511.5-149.665v201.22c-69.27 24.011-142.585 30.815-219.944 20.412-271.278-36.482-432.173 68.481-537.595 197.532-105.421 129.05-193.63 360.702-19.207 705.836H0V735.708z"/>
        <g fill="#263541">
            <path d="M760.823 28.034c0 .522.84 1.673.272 2.228-.567.553-2.496 2.436-3.132 3.81-.658 1.374-.34 4.343-.34 5.826 0 1.486 1.804.998 3.891.532 2.135-.475 4.7-3.865 5.778-4.929 1.101-1.052 1.566-4.62 1.566-4.62h2.179s1.306 1.02 1.566 2.615c.285 1.584 1.033 2.226 1.624 3.545.612 1.329 0 0 .295.842.25.852 2.587 2.924 4.55 3.4 1.952.477 1.999 1.374 3.03 1.374 1.022 0 1.465-2.759.932-4.287-.545-1.539-1.963-8.219-1.691-8.74.283-.532 4.993.521 5.584-.077.601-.566-2.646-.886-4.495-1.296-1.827-.433-5.527-2.472-8.898-2.87-3.325-.398-4.983.842-7.117.83-.498 0-.226-1.272-2.712-1.539-2.44-.233-2.757 1.585-2.757 1.585l-4.948.742 4.823.509v.52zM189.823 79.034c0 .522.84 1.673.272 2.228-.567.553-2.496 2.436-3.132 3.81-.658 1.374-.34 4.343-.34 5.826 0 1.486 1.804.998 3.891.532 2.135-.475 4.7-3.865 5.778-4.929 1.101-1.052 1.566-4.62 1.566-4.62h2.179s1.306 1.02 1.566 2.615c.285 1.584 1.033 2.226 1.624 3.545.612 1.329 0 0 .295.842.25.852 2.587 2.924 4.55 3.4 1.952.477 1.999 1.374 3.03 1.374 1.022 0 1.465-2.759.932-4.287-.545-1.539-1.963-8.219-1.691-8.74.283-.532 4.993.521 5.584-.077.601-.566-2.646-.886-4.495-1.296-1.827-.433-5.527-2.472-8.898-2.87-3.325-.398-4.983.842-7.117.83-.498 0-.226-1.272-2.712-1.539-2.44-.233-2.757 1.585-2.757 1.585l-4.948.742 4.823.509v.52zM137.837 36.576c.7 1.283 5.32 7.044 6.01 8.338.712 1.294 4.158 1.846 6.52 1.552 2.339-.292 4.768.957 7.422 1.733 2.667.788 5.313.383 5.843.09.543-.292-1.741-.156-4.927-1.08-3.141-.923-3.797-1.552-4.712-3.24-.937-1.665-4.53-1.328-5.231-2.555-.655-1.237 4.407.124 7.853-1.125 3.435-1.237 4.712-3.376 7.107-6.627 2.418-3.263.995-3.308-.892-3.42-1.843-.091-5.978.416-8.215-.26-2.25-.652-7.005 3.793-7.005 3.793s1.039-1.52 2.079-2.678c1.028-1.194 3.355-2.183 4.599-1.835 1.242.383 2.97.529 2.97.529.002 0 1.266-3.938.871-4.646-.396-.732-4.407-.496-7.616-.215-3.186.27-4.982 1.756-5.987 3.095-1.007 1.316-3.865 3.926-3.865 3.926s-.227-.404-1.728-.844c-1.493-.439-3.143 1.992-3.143 1.992l-4.79.653s2.373.247 3.357.54c.993.304 2.767 1 3.48 2.284z" transform="translate(0 64.345)"/>
            <path d="M1024.001 8.483L1024 728.825c-71.194 47.888-144.508 62.032-219.944 42.431-260.888-67.788-447.371 12.29-540.941 77.896C163.237 919.18 75.532 1028.59 0 1177.38V588.37L.002 84.425c1.001 1.132 1.8 2.451 2.387 3.966 10.186-12.316 29.121-14.153 40.08 1.54 10.085.157 17.5-.085 22.8 3.762 5.823 4.214 16.47 3.612 22.573 9.477 2.154 6.302 7.032 10.072 4.948 20.307 2.694 8.562 12.575 10.47 19.49 15.115 2.569 9.4 10.296 14.716 16.298 23.591-4.262 18.713 7.672 22.395 7.15 37.636-.086 2.878 8.913 12.05 10.724 15.404 3.567 6.553 5.877 13.684 7.087 21.05 1.928 11.84 11.903 19.886 10.1 31.857-1.982 13.324 1.124 26.438 1.35 39.739.234 14.075-3.574 27.79-4.144 41.818-.554 13.748.015 27.791-2.646 41.35-5.003 25.413-24.977 39.59-50.68 36.259-6.571-.829-12.934-2.784-19.06-5.263-10.39-4.222-18-13.01-29.739-6.067-3.942 2.314-6.813 7.695-10.928 9.453-12.37 5.287-25.655-6.928-31.61 9.689-4.7 13.098-2.303 27.877-2.904 41.459-.843 19.47-3.146 41.638-2.303 60.24.18 3.99 2.146 10.08 2.303 14.452.257 6.748-2.342 16.874-.882 22.942 1.653 6.83 6.072 12.078 9.55 16.895 26.818 3.249 53.88 6.216 81.184 8.903 1.37-.626 2.763-.985 3.816-1.115 1.34-.166 2.284.377 3.378-.072 1.746-.716 9.176-1.358 9.804-2.457 1.14-1.995 3.776-7.836 6.364-14 .053-3.74.308-7.893 1.084-12.651-1.93-19.604 5.787-29.354 10.27-36.784 1.95-3.232 4.023-4.265 8.825-7.22.966-5.61-1.086-8.046-2.306-12.655-.556.79-1.08 1.612-1.565 2.447-.907 1.677-1.885 3.444-1.845 5.423-.411-1.968.247-3.995.856-5.872.147-.412.33-.809.49-1.215-1.725 2.323-3.633 4.827-2.005 11.884-.844-.908-1.908-3.268-1.978-5.756-1.308 3.57.712 8.976.712 8.976s-3.197-4.404-2.323-8.034c-2.236 3.594-.825 7.818-.825 7.818s-3.854-4.76-.029-12.39c-4.21 5.438-2.715 11.355-2.616 11.726l.003.013c-.073-.185-2.053-5.309.016-10.34-2.857 3.768-2.38 9.356-2.361 9.562-.065-.26-2-8.316.922-12.654l.105-.152-.108.141c-4.956 6.564-3.115 11.74-3.058 11.898v.001c-.086-.138-2.19-3.61-.389-8.618-1.782 1.967-2.513 4.939-2.757 4.973.707-5.016 2.175-8.558 3.956-11.119-1.883 2.14-3.474 4.591-4.88 7.108 1.704-3.777 3.732-7.514 6.792-10.526 1.528-1.49 3.384-2.747 5.517-3.434 1.242-.41 2.555-.553 3.859-.551.004-.062-.02-.118-.011-.18.213-1.52 1.62-2.578 3.14-2.364.127.018.227.088.346.122 2.42-5.565 10.936-13.856 24.94-6.894 4.384 2.18 7.884 4.198 8.498 7.942.737.488 1.456 1.063 1.97 1.901.674 1.102.692 2.446.4 3.468-.6 2.011-1.811 3.48-2.98 4.942-.342 1.102-.758 2.145-1.226 3.078.057.108.159.218.34.318.348.203.81.322 1.228.5-.451.049-.877.174-1.387.176-.177.017-.4-.03-.622-.113-.463.953.897 2.742 1.081 3.719.2 1.062-1.38 1.356-2.151 1.37-.25.003-.085 2.273-.613 2.544-.528.27-2.135.359-2.394.58-.259.22 1.491 1.869-.389 1.952-1.88.082.409 2.537-1.932 3.057-2.341.52-5.316-1.138-6.192-1.07-3.297.253-2.408.56-3.377 3.91 1.972-.09 7.214 16.15 6.87 20.357-.616 7.55 1.363 15.616.255 20.82 4.332 3.142 4.49 1.578 13.412 7.443l-.025.009c.522.19.988.38 1.491.572.617-.401 1.254-.646 1.254-.646s.466-.79.572-1.82c.275-2.67-5.486-8.432-4.035-12.795.657-1.974 2.998-5.782 3.47-6.45.466-.656-2.507-2.096-.481-5.747l-.002-.002c.163-.384.27-.684.515-.825.726-.748 1.741-.265 2.322-.499 1.303-2.407 5.23-.908 6.775-.222.462-.56 1.075-1.953 1.866-2.563.13-.17.255-.262.365-.215.282.698.256 5.087 1.312 6.038 1.353 1.218.645 6.484 1.075 7.547.43 1.062 7.076-.771 9.47 7.938 1.641 5.974-.275 9.892-1.795 13.472 3.12 1.323 3.84 4.501 3.006 6.494l1.015.19c8.126 1.502 16.228 2.629 19.91 2.005 1.607-2.583 2.395-2.663 3.21-3.372.528-.993.978-1.697 1.51-2.156 2.701-4.641 4.915-6.616 6.464-6.61 5.37-9.263 8.836-7.995 8.973-1.678.152 7.059-3.088 14.623-3.368 18.872-.542 8.193-1.695 11.446-6.866 10.514-.04.303-.083.597-.128.88 13.934.881 27.928 1.694 41.983 2.438-2.065-.516-3.464-1.151-3.417-1.873.13-2.01 22.312 1.205 26.019-4.488 3.707-5.694 6.18-9.648 10.147-12.595 3.968-2.948 12.36-10.786 13.66-11.79 1.3-1.004.976-5.092 2.993-6.968 0 0 .454-2.01.324-2.879-.13-.873-2.081-3.15-.91-6.432 0 0-1.887-5.694.391-8.574 0 0 1.626-.804 4.877 4.422 0 0 2.147.065 3.969.133l.022-.033c.275-.404 3.069-4.433 4.986-3.987 1.107.402.195 7.302-.39 7.973 0 0 1.107 4.085-1.497 8.909 0 0-.714 2.613.066 4.086.78 1.474 2.016 9.378-.454 15.007-2.473 5.626-1.302 19.36-.652 19.495.652.132 2.861.065 2.343 1.94-.074.196-.15.355-.225.484 55.857 2.123 112.633 3.186 170.33 3.186 9.674 0 19.464-.061 29.347-.202l-.039-.002s.51-1.276 2.037-2.552c1.525-1.273 3.434-.89 4.705-1.4 1.27-.511.762-7.397 1.272-16.324.51-8.925-1.018-11.22-2.8-14.026-1.78-2.807-7.63-13.008-9.919-15.046-2.29-2.04-2.542-5.61-4.07-11.223-1.525-5.61-3.305-13.261-3.305-13.261s-10.939 2.55-12.719 2.55c-1.782 0-1.272-2.294-1.272-2.294-4.645-.737-3.883-2.65-3.817-2.797.004-.009.004-.009-1.269-2.049-1.27-2.04 5.849-5.357 7.119-6.121 1.274-.767 1.274-3.57 1.274-3.57-1.017-2.296 1.526-5.355 2.288-6.377.765-1.019 2.292-5.355 2.292-5.355-1.403-2.11-.658-5.08-.528-5.547l.019-.064c3.052.765 6.103 4.59 6.103 4.59-.763-2.296 1.78-3.825 2.796-3.316 1.02.511 3.562 3.572 3.562 3.572 8.903-2.04 18.316 5.101 23.657 12.241 5.343 7.142 11.7 11.22 17.806 15.302 5.96 3.985 21.136 4.32 21.847 4.334h.025s-.634-26.522 27.725-18.36c8.972 2.58 10.686 6.63 11.194 14.537.51 7.904-5.088 14.537-5.088 14.537.147.022 2.68.503 7.378 8.924 4.835 8.672 0 18.11 0 18.11s-2.036 12.75 1.017 15.045c2.752 2.072 3.436 4.141 3.357 11.08 15.502-1.338 31.038-3.002 46.528-5.051-.285-.195-.543-.412-.768-.651-1.888-2.01.255-3.502 1.606-4.913.516-.546.982-1.127 1.421-1.725.529-.712 1.03-1.447 1.568-2.169 2.68-3.615 3.657-8.208 5.61-12.202 1.964-3.999 5.128-7.373 6.743-11.547 1.496-3.876 1.452-7.003 1.602-11.143.057-1.552-.053-3.59-.08-5.727-1.134-1.31-2.147-2.806-3.045-4.408-.577.099-1.154.175-1.734.204l-.435.012h-.035c-2.751 0-5.484-1.069-7.706-3.761-1.387-1.69-2.932-3.942-3.856-6.33-1.13-.392-2.293-.739-3.48-1.052-3.988-1.042-7.588.04-11.448.423-1.8.18-10.448-1.118-6.659-4.311-3.538-.946-6.812-4.02-3.362-7.329 2.58-2.472 5.132-3.272 6.417-6.853 1.236-3.44 1.68-6.643 4.462-9.436 1.58-1.587 3.56-2.714 5.73-3.273 2.09-.54 4.362.142 6.328-.408 1.775-.484 2.936-1.65 5-1.857 1.783-.18 3.596-.044 5.379.048 1.764.097 3.745.458 5.566 1.113 3.473-1.68 7.751-2.09 11.478-1.803 7.125.537 13.604.866 20.786.286 4.766-.392 9.493-.994 14.264-1.276.448-1.98.638-3.937.682-6.026.083-4.082.831-7.883 1.403-11.83 1.088-7.494 2.773-15.122 5.44-22.218 1.598-4.192 4.753-9.075 6.1-13.8-.612-.074-1.228-.157-1.866-.28-1.285-.243-3.363-.176-4.357-1.184-.383-.387-.432-.857-.3-1.359.185-.73.423-.757.045-1.474-.555-1.042.22-1.786-.097-2.88-.097-.331-.154-.555-.154-.775-1.18 1.372-2.254 2.81-3.473 3.462-.703.352-1.518.532-2.332.536-1.492.018-3.212-.681-3.551-2.45-.031-.185-.045-.365-.045-.554.12-3.132 3.781-6.374 5.721-7.646 1.858-1.134 4.128-2.511 6.553-2.529 1.36-.004 2.764.488 3.957 1.677.876.932 1.44 2.665 1.787 4.689 1.36.519 1.443 2.6 1.954 3.721.255.554.642.58 1.285.638.73.07 1.527-.057 2.253-.123.942-.084 1.91-.088 2.865-.11-.061-1.197-.097-2.389.009-3.585.216-2.428.664-4.826.806-7.267.264-4.518.866-9.444 3.22-13.395 1.057-1.772 2.254-3.501 3.64-5.05 1.721-1.914 2.716-4.095 4.48-5.934 1.167-1.205 2.364-2.622 3.64-4.003-.207-1.056.12-2.156-.075-3.26-.383-2.098-1.852-6.026-3.362-7.587-1.677-1.755-4.933.092-7.306-.937-2.283-.994-.765-1.399-.959-3.26-.097-.906-1.914-2.402-.352-2.903-.123-.194-.827-.894-.832-1.126-.017-.665.51-.766.568-1.263.106-.875.462-.268-.08-1.122-.263-.422-1.034-.483-1.297-.968-.674-1.244.352-1.93 1.219-2.753 2.214-2.098 2.12-3.792 2.702-6.66.805-4.024 4.647-7.691 8.04-9.935 6.514-4.302 15.17-.849 19.549 4.7 2.284 2.9 4.282 7.276 4.071 11.05-.14 2.455-1.734 5.609-2.592 8.635-.894 3.172-.977 6.216 2.266 8.204-1.285.26-2.948-1.183-3.692-2.26.665 1.64 1.303 3.364 2.83 4.319-1.272 0-3.147-1.28-3.798-2.26.638 1.464.59 3.734-.796 4.815.228-.954.074-2.018-.648-2.709.212.207.163 2.283.251 3.467 1.602.967 3.103 2.142 4.423 3.201 3.415 2.737 5.193 7.972 4.99 12.238-.334 6.762-2.565 13.342-2.913 20.112-.317 6.119.986 11.89-.285 18.01-.256 1.217-.586 2.234-1.004 3.135 2.953 3.62 5.832 7.76 8.08 11.72 2.742 4.812 4.366 9.826 5.713 15.316 2.816 11.45 4.937 23.182 6.803 34.782.3 1.856.251 4.487.947 6.176-1.646 2.235-7.068 2.279-9.515 2.375-.374.023-.74.013-1.114.023-.119.9-.21 1.838-.15 2.868.141 2.454.925 4.71 1.779 6.91 1.492 3.862 2.79 7.487 3.543 11.67 1.157 6.44 1.584 13.94.193 20.323-.26 1.194-.505 2.434-.709 3.7 25.794-8.861 50.662-19.561 74.152-32.454 27.186-14.92 59.799-34.986 97.84-60.198 1.466-9.576 2.66-20.907 3.928-31.639 1.772-14.888 13.643-43.1 5.206-52.625-3.84-4.348-2.006-7.334-5.425-16.311-2.162-5.677-11.185-14.7-16.391-20.738-4.363-5.02-5.464-10.345-10.912-14.778-.975-.798-4.98.765-5.72-.22-2.046-2.72-17.282-7.881-28.405-6.85-5.791.76-8.936-.93-8.367-6.067-9.975.18-11.264 9.743-20.49 10.705-10.045 1.056-23.126 1.696-31.892-4.293-14.751-10.064 4.528-22.959-4.339-34.664-3.326-4.387-9.585-5.528-12.91-10.298-4.653-6.647-7.228-15.765-1.57-22.576 6.417-7.733 15.12-15.646 9.516-26.202-2.592-4.888-6.814-6.772-8.313-12.848-1.475-5.919-.367-12.316-1.164-18.344-1.108-8.36 3.155-14.646 3.271-23.092.211-14.59-1.81-24.319 5.925-36.908 4.792-7.772 2.576-15.498 3.715-24.256.843-6.45 4.8-24.224 9.796-28.861.913-.845 4.94 1.142 5.736.21 2.022-2.4 1.296-6.193 3.185-8.49 1.639-1.972 5.963-1.713 5.948-5.514 19.146-5.168 28.622-20.807 41.407-32.873 1.21-4.402-1.007-10.056.546-14.326.508-1.391 5.307-1.594 5.839-2.666 3.512-7.06 1.724-12.465 9.25-16.874 2.005-1.174 1.537-1.658 2.965-2.745 4.426-3.339 12.832-10.08 26.1-7.617 6.573 1.126 3.505-8.163 8.922-8.28.805-4.106 8.587-.665 8.804-5.403 9.749-.246 16.448 2.347 19.321 8.467zm-428.14 579.389c-7.886 1.53-25.692-.765-28.233-1.02-2.545-.256-3.562 4.336-3.307 7.137.255 2.808-1.783 9.184-3.563 12.499-1.394 2.596-2.477 8.637-4.103 12.358 25.602-.576 51.745-1.735 78.035-3.785-.032-.32-.087-.63-.166-.922-.763-2.806-1.018-7.14-8.393-12.243-7.378-5.1-4.325-6.375-10.176-12.75-5.85-6.377-12.21-2.806-20.094-1.274zm-261.794 12.973l-1.561 1.471s.78 8.375 1.042 9.849c.26 1.474.976 2.478 1.497 2.814.2.129.438.486.578.896l1.576.062c-.224-.326-.424-.802-.53-1.495-.324-2.143-2.602-13.597-2.602-13.597zm-6.112 5.76s-4.034 5.895-5.855 6.163h.066c.454.007 3.087.139 2.73 2.345l-.581.3c2.008.084 4.017.168 6.027.25-.2-2.566-1.89-8.546-2.387-9.059zm-25.63 5.694s-1.982 1.171-5.073 1.882c2.23.11 4.464.216 6.699.322-.572-.578-1.129-1.301-1.626-2.204zm415.598-36.286c-2.064 2.194-3.662 4.644-5.22 7.302-1.1 1.869-2.35 3.752-3.274 5.731-1.685 3.594-2.826 7.527-4.463 11.209-1.118 2.504-1.864 5.328-3.585 7.515 7.34-1.054 14.667-2.2 21.97-3.443 4.426-4.223 2.587-9.575.271-14.594-1.672-3.617-3.376-7.254-4.678-11.037-.286-.823-.638-1.725-1.021-2.683zm28.571-21.542c-3.165 1.913-6.157 3.766-9.652 5.283-3.64 1.575-7.102 2.609-10.76 3.629.564 5.662 2.628 10.976 3.912 16.597.546 2.375.815 4.461 1.902 6.735 1.025 2.15 2.68 4.451 2.772 6.906.11 2.814-.04 5.863-.325 8.757 1.4-.257 2.798-.52 4.195-.785.22-.675 1.043-1.242 2.771-1.572 2.104-.4 3.5.242 5.374-.835 2.28-4.98 2.64-10.984 2.636-16.259-.004-5.573-.695-9.884-2.231-15.211-1.232-4.262-1.18-8.881-.594-13.245zM126.6 597.346l-.875 1.367c-.755 1.185-1.035 2.35-1.27 3.322l1.537.143c.34-1.572.521-3.172.608-4.832zm650.085-26.955c-1.352 3.615-3.253 6.963-4.296 10.645-1.268 4.51-.754 8.958-.728 13.48 4.92-1.172 9.821-2.399 14.699-3.68-.117-.292-.255-.583-.42-.879-1.048-1.878-2.399-3.475-3.257-5.49-.784-1.843-.788-3.62-1.303-5.49-.735-2.688-2.702-4.377-3.908-6.76-.321-.617-.555-1.224-.787-1.826zm27.404-39.234c-.26.044-.52.105-.784.159-2.108 3.435-5.007 6.487-8.792 8.898-3.068 1.949-7.103 2.076-10.827 1.307-1.012 5.09-1.435 9.862-.022 15.493 1.395 5.55 2.905 10.355 5.317 15.51 1.782 3.8 4.454 6.62 4.286 11.033-.07 1.821-.003 3.607.194 5.366 7.9-2.17 15.734-4.491 23.492-6.97-.06-1.211-.105-2.416-.105-3.61 0-3.325.4-6.646.233-9.95-.198-3.92-1.369-8.076-2.355-11.907-1.157-4.514-1.971-8.384-4.757-12.058-2.896-3.822-4.956-8.467-5.88-13.27zm-39.612 18.5c-1.67 2.09-3.135 4.492-4.091 6.99-1.12 2.927-1.764 6.172-2.465 9.2-1.318 5.686.744 10.165 2.245 15.438.125.443.177.903.203 1.372l.013-.039c1.553-4.93 2.257-10.829 2.945-16.128.493-3.801.92-7.676 1.094-11.56.082-1.759.1-3.518.056-5.273zM611.5 552.916c7.293.25 11.57 3.741 11.57 3.741.25-1.497 2.012-9.471-4.025-9.973-6.037-.498-7.545 6.232-7.545 6.232zm82-8.259c.885 1.754 2.085 3.44 3.209 4.738 2.09 2.404 4.395 3.24 6.907 3.262.288 0 .59-.035.884-.061-1.568-1.48-3.048-3.078-4.726-4.405-1.943-1.528-4.046-2.643-6.274-3.534zm-515.033-39.631c.254 1.957-.076 4.53-.761 6.962.707-1.608 1.377-3.29 1.447-4.883.025-.872-.198-1.59-.648-2.052-.01-.01-.028-.016-.038-.027zm589.012-50.369c-.172.563-.388 1.077-.79 1.4-1.559 4.646-4.424 9.093-5.79 12.782-2.622 7.012-4.3 14.603-5.381 22.07-.574 4.018-1.307 7.779-1.387 11.733-.04 2.03-.216 3.983-.631 5.963 1.35-.058 2.702-.098 4.062-.08 1.541.017 3.078.066 4.614.132 2.61-7.45 5.785-14.913 9.043-22.012 2.384-5.187 4.548-10.75 7.281-15.847-.654-.05-1.303-.151-1.704-.448-1.016-.748-1.074-2.782-1.122-3.942-.137-3.464.225-6.958.41-10.448-1.434-.261-2.865-.51-4.304-.714-.879-.114-1.762-.194-2.636-.35-.561-.101-1.113-.172-1.665-.239zm-5.193-15c-1.835-.017-3.955 1.15-5.768 2.246-1.669.935-5.133 4.381-5.015 6.234 0 .103.01.205.026.317.114.742.947 1.186 2.12 1.203.592.004 1.21-.14 1.674-.371.693-.315 1.795-1.612 2.963-2.949l.391-.446c.272-.298.557-.598.837-.888-.004-.025-.009-.034-.013-.06-.373-1.759 1.165-1.968 2.549-1.805.319-.124.649-.211.995-.248l.262-.018h.018c.92 0 1.79.458 2.548 1.324.206.03.416.056.627.056-.342-1.66-.797-2.972-1.284-3.37-.954-.909-1.9-1.22-2.93-1.224zm235.23-103.848c-.524 5.394-9.538 1.61-8.914 8.257 13.417 7.851 17.843 24.037 30.276 32.78 1.64-10.955.11-18.236-2.09-20.19-.914-.814.888-4.677.225-5.74-.803-1.259-4.324-4.676-5.518-5.96-4.434-4.8-7.892-8.46-13.979-9.147z" transform="translate(0 64.345)"/>
            <path d="M786.837 72.576c.7 1.283 5.32 7.044 6.01 8.338.712 1.294 4.158 1.846 6.52 1.552 2.339-.292 4.768.957 7.422 1.733 2.667.788 5.313.383 5.843.09.543-.292-1.741-.156-4.927-1.08-3.141-.923-3.797-1.552-4.712-3.24-.937-1.665-4.53-1.328-5.231-2.555-.655-1.237 4.407.124 7.853-1.125 3.435-1.237 4.712-3.376 7.107-6.627 2.418-3.263.995-3.308-.892-3.42-1.843-.091-5.978.416-8.215-.26-2.25-.652-7.005 3.793-7.005 3.793s1.039-1.52 2.079-2.678c1.028-1.194 3.355-2.183 4.599-1.835 1.242.383 2.97.529 2.97.529.002 0 1.266-3.938.871-4.646-.396-.732-4.407-.496-7.616-.215-3.186.27-4.982 1.756-5.987 3.095-1.007 1.316-3.865 3.926-3.865 3.926s-.227-.404-1.728-.844c-1.493-.439-3.143 1.992-3.143 1.992l-4.79.653s2.373.247 3.357.54c.993.304 2.767 1 3.48 2.284z" transform="translate(0 64.345)"/>
        </g>
    </g>
</svg>
