<svg xmlns="http://www.w3.org/2000/svg" width="159" height="48" viewBox="0 0 159 48">
    <g fill="none">
        <path fill="#000" d="M10.21 47.896c-.411 0-.812-.005-1.22-.014-.844-.01-1.686-.078-2.52-.204-.777-.124-1.53-.356-2.234-.686-.697-.328-1.333-.758-1.884-1.273-.558-.51-1.023-1.1-1.376-1.749-.356-.653-.603-1.352-.732-2.075-.138-.776-.214-1.56-.224-2.348C.01 39.283 0 38.404 0 38.404V9.478s.012-.866.02-1.12c.01-.786.085-1.57.223-2.344.129-.725.376-1.426.733-2.081.351-.649.814-1.24 1.369-1.75.554-.517 1.192-.949 1.89-1.281.703-.33 1.454-.56 2.23-.681C7.3.094 8.146.025 8.994.015L10.21 0h138.573l1.231.016c.84.01 1.677.077 2.506.203.784.124 1.543.355 2.253.686 1.4.67 2.538 1.73 3.256 3.03.352.651.595 1.347.722 2.065.14.782.218 1.572.234 2.364.004.354.004.735.004 1.114.011.47.011.917.011 1.367v26.207c0 .454 0 .898-.01 1.346 0 .407 0 .78-.006 1.164-.016.778-.093 1.554-.23 2.321-.126.728-.372 1.433-.728 2.091-.356.642-.818 1.227-1.37 1.735-.55.518-1.188.95-1.887 1.28-.708.334-1.466.566-2.249.689-.833.126-1.676.195-2.52.204-.395.009-.809.014-1.21.014l-1.462.002-137.118-.002z"/>
        <path fill="#FFF" d="M51.526 9.427c.925-.068 1.83.292 2.468.982.637.689.94 1.634.823 2.576 0 2.288-1.208 3.602-3.291 3.602H49v-7.16h2.526zm-1.44 6.148h1.319c.66.04 1.304-.226 1.751-.726.448-.5.651-1.179.555-1.85.09-.667-.117-1.34-.564-1.836-.446-.496-1.085-.761-1.742-.724h-1.319v5.136zm5.957-1.692c-.09-.968.364-1.906 1.171-2.419.807-.513 1.83-.513 2.636 0 .808.513 1.261 1.45 1.171 2.42.092.969-.36 1.908-1.17 2.422-.807.514-1.83.514-2.638 0-.809-.514-1.262-1.453-1.17-2.423zm3.907 0c0-1.171-.514-1.856-1.416-1.856-.905 0-1.415.685-1.415 1.856 0 1.18.51 1.86 1.415 1.86.902 0 1.416-.684 1.416-1.86zm7.688 2.704h-1.08l-1.092-3.98h-.082l-1.086 3.98h-1.07l-1.455-5.403h1.056l.946 4.123h.078l1.085-4.123h.999l1.085 4.123h.082l.941-4.123h1.042l-1.45 5.403zm2.672-5.403h1.003v.858h.077c.271-.632.904-1.018 1.575-.963.52-.04 1.03.165 1.386.556.355.39.517.926.441 1.454v3.498H73.75v-3.23c0-.868-.368-1.3-1.138-1.3-.353-.017-.696.125-.938.388s-.36.622-.322.981v3.161H70.31v-5.403zm6.142-2.11h1.041v7.513h-1.041V9.074zm2.489 4.81c-.09-.97.363-1.907 1.17-2.42.808-.513 1.83-.513 2.637 0 .808.513 1.261 1.45 1.171 2.42.092.969-.361 1.908-1.17 2.422-.807.514-1.83.514-2.639 0-.808-.514-1.261-1.453-1.17-2.423zm3.906 0c0-1.172-.514-1.857-1.416-1.857-.905 0-1.414.685-1.414 1.856 0 1.18.51 1.86 1.414 1.86.902 0 1.416-.684 1.416-1.86zm2.169 1.175c0-.972.707-1.533 1.962-1.613l1.43-.084v-.467c0-.57-.369-.893-1.08-.893-.582 0-.985.219-1.1.6h-1.009c.107-.927.96-1.522 2.157-1.522 1.323 0 2.069.674 2.069 1.815v3.692h-1.003v-.76h-.082c-.34.555-.946.88-1.585.85-.448.047-.895-.102-1.23-.41-.335-.308-.528-.747-.53-1.208zm3.392-.462v-.451l-1.289.084c-.727.05-1.056.303-1.056.78 0 .486.412.769.978.769.336.034.67-.072.928-.294.258-.223.416-.543.439-.888zm2.406-.714c0-1.707.857-2.789 2.19-2.789.674-.032 1.304.338 1.619.948h.078V9.074h1.041v7.513h-.998v-.853h-.082c-.339.605-.977.968-1.658.942-1.342 0-2.19-1.081-2.19-2.793zm1.076 0c0 1.146.527 1.836 1.41 1.836.878 0 1.42-.7 1.42-1.831 0-1.126-.548-1.836-1.42-1.836-.877 0-1.41.694-1.41 1.831zm8.161 0c-.09-.968.363-1.906 1.17-2.419.808-.513 1.83-.513 2.637 0 .808.513 1.261 1.45 1.17 2.42.093.969-.36 1.908-1.168 2.422-.808.514-1.832.514-2.64 0s-1.261-1.453-1.169-2.423zm3.907 0c0-1.171-.514-1.856-1.416-1.856-.906 0-1.415.685-1.415 1.856 0 1.18.51 1.86 1.415 1.86.902 0 1.416-.684 1.416-1.86zm2.468-2.7h1.003v.86h.078c.27-.633.903-1.02 1.575-.964.52-.04 1.03.165 1.385.556.355.39.518.926.441 1.454v3.498h-1.041v-3.23c0-.868-.369-1.3-1.14-1.3-.352-.017-.694.125-.936.388-.243.263-.36.622-.323.981v3.161h-1.042v-5.403zm10.367-1.345v1.37h1.144v.899h-1.144v2.778c0 .566.228.814.747.814.132 0 .265-.009.397-.025v.889c-.187.034-.377.052-.567.054-1.158 0-1.62-.417-1.62-1.459v-3.051h-.837v-.899h.838v-1.37h1.042zm2.566-.764h1.033v2.978h.082c.284-.637.927-1.024 1.61-.968.517-.029 1.02.18 1.37.57.352.39.516.919.447 1.445v3.488h-1.043v-3.225c0-.863-.392-1.3-1.128-1.3-.362-.03-.72.104-.976.368s-.385.63-.353 1.001v3.156h-1.041V9.074zm10.615 6.054c-.292 1.02-1.256 1.678-2.287 1.564-.704.019-1.38-.28-1.85-.817-.469-.537-.684-1.258-.588-1.972-.093-.716.12-1.439.588-1.98.467-.542 1.14-.85 1.846-.844 1.468 0 2.354 1.028 2.354 2.724v.373h-3.727v.06c-.033.4.101.797.369 1.092.267.294.644.46 1.037.455.51.063 1.005-.196 1.255-.655h1.003zm-3.664-1.741h2.666c.026-.367-.1-.728-.347-.995-.247-.266-.593-.413-.952-.405-.364-.005-.714.141-.972.405-.257.264-.4.622-.395.995zM58.63 32.888h-5.788l-1.39 4.203H49l5.483-15.55h2.547l5.483 15.55H60.02l-1.39-4.203zm-5.188-1.94h4.588l-2.262-6.82h-.063l-2.263 6.82zm20.913.475c0 3.523-1.842 5.786-4.62 5.786-1.437.077-2.79-.693-3.485-1.983h-.052v5.615h-2.273V25.754h2.2v1.886h.042c.725-1.282 2.08-2.052 3.525-2.005 2.81 0 4.663 2.275 4.663 5.788zm-2.336 0c0-2.295-1.159-3.804-2.926-3.804-1.737 0-2.905 1.54-2.905 3.804 0 2.284 1.168 3.814 2.905 3.814 1.767 0 2.926-1.498 2.926-3.814zm14.522 0c0 3.523-1.841 5.786-4.62 5.786-1.437.077-2.79-.693-3.484-1.983h-.053v5.615h-2.272V25.754h2.2v1.886h.041c.725-1.282 2.08-2.052 3.526-2.005 2.81 0 4.662 2.275 4.662 5.788zm-2.336 0c0-2.295-1.158-3.804-2.926-3.804-1.736 0-2.904 1.54-2.904 3.804 0 2.284 1.168 3.814 2.904 3.814 1.768 0 2.926-1.498 2.926-3.814zm10.39 1.335c.17 1.542 1.632 2.555 3.631 2.555 1.916 0 3.294-1.013 3.294-2.403 0-1.207-.831-1.93-2.8-2.425L96.754 30c-2.789-.69-4.084-2.025-4.084-4.192 0-2.683 2.284-4.526 5.526-4.526 3.21 0 5.41 1.843 5.483 4.526h-2.294c-.137-1.552-1.39-2.489-3.22-2.489-1.832 0-3.085.948-3.085 2.327 0 1.1.8 1.746 2.758 2.242l1.673.42c3.116.755 4.41 2.036 4.41 4.31 0 2.91-2.262 4.732-5.862 4.732-3.368 0-5.642-1.78-5.789-4.592h2.327zm14.23-9.687v2.683h2.106v1.843h-2.105v6.25c0 .97.421 1.423 1.347 1.423.25-.004.5-.022.748-.054v1.832c-.417.08-.84.116-1.263.108-2.242 0-3.116-.863-3.116-3.061v-6.498h-1.61v-1.843h1.61V23.07h2.284zm3.326 8.352c0-3.567 2.051-5.808 5.251-5.808 3.21 0 5.253 2.24 5.253 5.808 0 3.577-2.032 5.808-5.253 5.808-3.22 0-5.251-2.231-5.251-5.808zm8.188 0c0-2.447-1.095-3.891-2.937-3.891-1.842 0-2.936 1.455-2.936 3.891 0 2.457 1.094 3.89 2.936 3.89 1.842 0 2.937-1.433 2.937-3.89zm4.19-5.67h2.167v1.93h.053c.302-1.242 1.413-2.097 2.663-2.048.262 0 .523.028.778.087V27.9c-.33-.104-.675-.151-1.02-.14-.669-.029-1.315.244-1.77.745-.456.502-.675 1.182-.599 1.862v6.725h-2.273V25.754zm16.14 8.008c-.306 2.058-2.263 3.47-4.767 3.47-3.221 0-5.22-2.21-5.22-5.754 0-3.556 2.01-5.862 5.124-5.862 3.063 0 4.99 2.154 4.99 5.592v.797h-7.82v.14c-.073.844.211 1.68.781 2.294.57.615 1.37.949 2.197.918 1.103.105 2.143-.543 2.557-1.595h2.158zm-7.683-3.384h5.536c.041-.758-.229-1.5-.744-2.046-.516-.546-1.23-.847-1.972-.83-.748-.005-1.466.296-1.995.836-.53.54-.827 1.275-.825 2.04zM34.096 24.324c.027-2.124 1.115-4.086 2.882-5.199-1.12-1.638-2.929-2.639-4.88-2.702-2.054-.22-4.045 1.259-5.092 1.259-1.066 0-2.678-1.237-4.413-1.2-2.283.075-4.36 1.372-5.47 3.416-2.365 4.192-.6 10.354 1.665 13.744 1.133 1.66 2.458 3.513 4.192 3.447 1.696-.072 2.33-1.107 4.377-1.107 2.029 0 2.623 1.107 4.392 1.065 1.82-.03 2.967-1.667 4.06-3.342.815-1.182 1.442-2.49 1.858-3.872-2.162-.936-3.568-3.105-3.57-5.509zm-3.34-10.13c.992-1.22 1.481-2.787 1.363-4.37-1.516.163-2.917.905-3.923 2.078-.993 1.157-1.496 2.671-1.399 4.209 1.537.016 2.996-.69 3.959-1.916z"/>
    </g>
</svg>
