<svg xmlns="http://www.w3.org/2000/svg" width="60" height="60" viewBox="0 0 60 60">
    <g fill="none" fill-rule="evenodd">
        <path fill="#E17459" d="M60 30c0 16.568-13.432 30-30 30C13.432 60 0 46.568 0 30 0 13.432 13.432 0 30 0c16.568 0 30 13.432 30 30"/>
        <path fill="#E17459" d="M39.465 28.454l-.99.686c-1.13.783-3.04-.235-3.822-2.038l-1.22-2.815c-.52-1.202-.36-2.387.393-2.91.754-.522 1.92-.256 2.863.653l2.209 2.13c1.414 1.363 1.697 3.51.567 4.294"/>
        <path stroke="#FFF" d="M39.465 28.454l-.99.686c-1.13.783-3.04-.235-3.822-2.038l-1.22-2.815c-.52-1.202-.36-2.387.393-2.91.754-.522 1.92-.256 2.863.653l2.209 2.13c1.414 1.363 1.697 3.51.567 4.294z"/>
        <path fill="#E17459" d="M20.712 28.454l.989.686c1.13.783 3.04-.235 3.823-2.038l1.219-2.815c.52-1.202.36-2.387-.392-2.91-.754-.522-1.92-.256-2.863.653l-2.21 2.13c-1.413 1.363-1.696 3.51-.566 4.294l43.1-7.077"/>
        <path stroke="#FFF" d="M20.712 28.454l.989.686c1.13.783 3.04-.235 3.823-2.038l1.219-2.815c.52-1.202.36-2.387-.392-2.91-.754-.522-1.92-.256-2.863.653l-2.21 2.13c-1.413 1.363-1.696 3.51-.566 4.294z"/>
        <path fill="#E17459" d="M31.642 36.885h-3.188c-3.642 0-6.265-3.497-5.246-6.995l1.594-5.464c.68-2.332 2.818-3.935 5.246-3.935 2.429 0 4.567 1.603 5.246 3.935l1.594 5.464c1.02 3.498-1.602 6.995-5.246 6.995"/>
        <path stroke="#FFF" d="M31.642 36.885h-3.188c-3.642 0-6.265-3.497-5.246-6.995l1.594-5.464c.68-2.332 2.818-3.935 5.246-3.935 2.429 0 4.567 1.603 5.246 3.935l1.594 5.464c1.02 3.498-1.602 6.995-5.246 6.995z"/>
        <path fill="#FFF" d="M28.543 27.122c0 .503-.408.911-.911.911-.503 0-.91-.408-.91-.91 0-.504.407-.912.91-.912.503 0 .911.408.911.911M33.278 27.122c0 .503-.407.911-.91.911-.503 0-.91-.408-.91-.91 0-.504.407-.912.91-.912.503 0 .91.408.91.911"/>
        <path stroke="#FFF" d="M31.505 30.328c.86 0 1.35.98.839 1.672-.512.69-1.333 1.607-2.26 1.607-.926 0-1.747-.916-2.26-1.607-.51-.691-.02-1.672.84-1.672h2.84zM30.02 33.787L30.02 36.577"/>
        <path stroke="#FFF" d="M42.524 16.704c0-2.435-2.074-4.41-4.634-4.41H22.174c-2.559 0-4.633 1.975-4.633 4.41v26.374h24.983V16.704z"/>
        <path stroke="#FFF" d="M22.175 49.836H37.89c2.559 0 4.634-1.974 4.634-4.41v-2.35H17.54v2.35c0 2.436 2.074 4.41 4.634 4.41z"/>
        <path stroke="#FFF" d="M31.476 46.558c0 .905-.734 1.639-1.64 1.639-.905 0-1.64-.734-1.64-1.64 0-.905.735-1.64 1.64-1.64.906 0 1.64.735 1.64 1.64z"/>
    </g>
</svg>
