<svg xmlns="http://www.w3.org/2000/svg" width="60" height="60" viewBox="0 0 60 60">
    <g fill="none" fill-rule="evenodd">
        <path fill="#E17459" d="M30 60C13.432 60 0 46.568 0 30 0 13.432 13.432 0 30 0c16.568 0 30 13.432 30 30 0 16.568-13.432 30-30 30z"/>
        <path fill="#E17459" d="M29.928 35.335l-1.267.878c-1.448 1.004-3.895-.3-4.895-2.609l-1.564-3.606c-.666-1.539-.461-3.058.504-3.726.965-.67 2.459-.33 3.666.835l2.829 2.728c1.812 1.747 2.174 4.497.727 5.5"/>
        <path stroke="#FFF" d="M29.928 35.335l-1.267.878c-1.448 1.004-3.895-.3-4.895-2.609l-1.564-3.606c-.666-1.539-.461-3.058.504-3.726.965-.67 2.459-.33 3.666.835l2.829 2.728c1.812 1.747 2.174 4.497.727 5.5z"/>
        <path fill="#E17459" d="M5.91 35.335l1.266.878c1.447 1.004 3.895-.3 4.895-2.609l1.563-3.606c.667-1.539.462-3.058-.503-3.726-.966-.67-2.459-.33-3.666.835l-2.83 2.728c-1.81 1.747-2.174 4.497-.726 5.5"/>
        <path stroke="#FFF" d="M5.91 35.335l1.266.878c1.447 1.004 3.895-.3 4.895-2.609l1.563-3.606c.667-1.539.462-3.058-.503-3.726-.966-.67-2.459-.33-3.666.835l-2.83 2.728c-1.81 1.747-2.174 4.497-.726 5.5z"/>
        <path fill="#E17459" d="M19.908 46.134h-4.083c-4.666 0-8.025-4.479-6.719-8.958l2.041-7c.871-2.986 3.61-5.039 6.72-5.039s5.848 2.053 6.72 5.04l2.04 7c1.306 4.478-2.053 8.957-6.719 8.957"/>
        <path stroke="#FFF" d="M19.908 46.134h-4.083c-4.666 0-8.025-4.479-6.719-8.958l2.041-7c.871-2.986 3.61-5.039 6.72-5.039s5.848 2.053 6.72 5.04l2.04 7c1.306 4.478-2.053 8.957-6.719 8.957z"/>
        <path stroke="#FFF" d="M19.733 37.736c1.101 0 1.73 1.256 1.074 2.14-.656.886-1.708 2.059-2.894 2.059-1.186 0-2.239-1.173-2.894-2.058-.655-.885-.027-2.141 1.074-2.141h3.64zM17.831 42.166L17.831 45.739M18.07 20.544l-.72-.604c-2.552-2.13-4.236-3.537-4.236-5.262 0-1.405 1.2-2.51 2.726-2.51.861 0 1.69.37 2.23.955.54-.584 1.366-.954 2.228-.954 1.527 0 2.726 1.104 2.726 2.51 0 1.725-1.684 3.13-4.236 5.266l-.719.599zM42.2 20.544l-.719-.604c-2.552-2.13-4.237-3.537-4.237-5.262 0-1.405 1.2-2.51 2.726-2.51.862 0 1.69.37 2.23.955.54-.584 1.367-.954 2.23-.954 1.526 0 2.724 1.104 2.724 2.51 0 1.725-1.684 3.13-4.236 5.266l-.719.599z"/>
        <path fill="#FFF" d="M15.938 33.63c0 .644-.52 1.166-1.165 1.166-.646 0-1.168-.522-1.168-1.167 0-.644.522-1.167 1.168-1.167.645 0 1.165.523 1.165 1.167M22.005 33.63c0 .644-.522 1.166-1.167 1.166-.644 0-1.166-.522-1.166-1.167 0-.644.522-1.167 1.166-1.167.645 0 1.167.523 1.167 1.167"/>
        <path fill="#E17459" d="M34.454 35.639V26.74c0-.311.396-.443.582-.194l6.8 9.092h-7.382z"/>
        <path stroke="#FFF" d="M34.454 35.639V26.74c0-.311.396-.443.582-.194l6.8 9.092h-7.382z"/>
        <path fill="#E17459" d="M51.015 35.843v-8.898c0-.31-.396-.443-.583-.194l-6.8 9.092h7.383z"/>
        <path stroke="#FFF" d="M51.015 35.843v-8.898c0-.31-.396-.443-.583-.194l-6.8 9.092h7.383z"/>
        <path fill="#E17459" d="M44.035 44.463h-2.52c-3.942 0-7.138-3.196-7.138-7.14 0-3.942 3.196-7.138 7.138-7.138h2.52c3.943 0 7.14 3.196 7.14 7.139s-3.197 7.139-7.14 7.139"/>
        <path stroke="#FFF" d="M44.035 44.463h-2.52c-3.942 0-7.138-3.196-7.138-7.14 0-3.942 3.196-7.138 7.138-7.138h2.52c3.943 0 7.14 3.196 7.14 7.139s-3.197 7.139-7.14 7.139z"/>
        <path fill="#FFF" d="M40.477 36.57c0 .643-.521 1.166-1.166 1.166-.645 0-1.166-.523-1.166-1.167 0-.645.521-1.167 1.165-1.167.645 0 1.167.522 1.167 1.167M47.383 36.57c0 .643-.522 1.166-1.166 1.166-.645 0-1.167-.523-1.167-1.167 0-.645.522-1.167 1.167-1.167.644 0 1.166.522 1.166 1.167M44.073 38.905c.648 0 1.02.776.633 1.323C44.32 40.775 43.7 41.5 43 41.5c-.699 0-1.32-.725-1.706-1.272-.387-.547-.016-1.323.633-1.323h2.146z"/>
        <path stroke="#FFF" d="M48.223 40.675L45.284 40.675M46.543 42.355L44.443 42.355M37.443 40.675L40.382 40.675M39.123 42.355L41.223 42.355"/>
        <path fill="#FFF" d="M42.344 44.035L43.604 44.035 43.604 41.096 42.344 41.096z"/>
    </g>
</svg>
