<svg xmlns="http://www.w3.org/2000/svg" xmlns:xlink="http://www.w3.org/1999/xlink" width="60" height="60" viewBox="0 0 60 60">
    <defs>
        <path id="prefix__a" d="M0.3 0.549L60.3 0.549 60.3 60.549 0.3 60.549z"/>
        <path id="prefix__c" d="M30.3.549c-16.568 0-30 13.432-30 30 0 16.569 13.432 30 30 30 16.569 0 30.001-13.431 30.001-30"/>
        <path id="prefix__e" d="M30.3.549c-16.568 0-30 13.432-30 30 0 16.569 13.432 30 30 30 16.569 0 30.001-13.431 30.001-30 0-16.568-13.432-30-30.001-30z"/>
        <path id="prefix__g" d="M30.3.549c-16.568 0-30 13.432-30 30 0 16.569 13.432 30 30 30 16.569 0 30.001-13.431 30.001-30"/>
        <path id="prefix__i" d="M30.3.549c-16.568 0-30 13.432-30 30 0 16.569 13.432 30 30 30 16.569 0 30.001-13.431 30.001-30 0-16.568-13.432-30-30.001-30z"/>
        <path id="prefix__k" d="M30.3.549c-16.568 0-30 13.432-30 30 0 16.569 13.432 30 30 30 16.569 0 30.001-13.431 30.001-30"/>
        <path id="prefix__m" d="M30.3.549c-16.568 0-30 13.432-30 30 0 16.569 13.432 30 30 30 16.569 0 30.001-13.431 30.001-30 0-16.568-13.432-30-30.001-30z"/>
        <path id="prefix__o" d="M30.3.549c-16.568 0-30 13.432-30 30 0 16.569 13.432 30 30 30 16.569 0 30.001-13.431 30.001-30"/>
        <path id="prefix__q" d="M30.3.549c-16.568 0-30 13.432-30 30 0 16.569 13.432 30 30 30 16.569 0 30.001-13.431 30.001-30 0-16.568-13.432-30-30.001-30z"/>
        <path id="prefix__s" d="M30.3.549c-16.568 0-30 13.432-30 30 0 16.569 13.432 30 30 30 16.569 0 30.001-13.431 30.001-30"/>
        <path id="prefix__u" d="M30.3.549c-16.568 0-30 13.432-30 30 0 16.569 13.432 30 30 30 16.569 0 30.001-13.431 30.001-30 0-16.568-13.432-30-30.001-30z"/>
        <path id="prefix__w" d="M30.3.549c-16.568 0-30 13.432-30 30 0 16.569 13.432 30 30 30 16.569 0 30.001-13.431 30.001-30"/>
        <path id="prefix__y" d="M30.3.549c-16.568 0-30 13.432-30 30 0 16.569 13.432 30 30 30 16.569 0 30.001-13.431 30.001-30 0-16.568-13.432-30-30.001-30z"/>
        <path id="prefix__A" d="M30.3.549c-16.568 0-30 13.432-30 30 0 16.569 13.432 30 30 30 16.569 0 30.001-13.431 30.001-30"/>
        <path id="prefix__C" d="M30.3.549c-16.568 0-30 13.432-30 30 0 16.569 13.432 30 30 30 16.569 0 30.001-13.431 30.001-30"/>
        <path id="prefix__E" d="M30.3.549c-16.568 0-30 13.432-30 30 0 16.569 13.432 30 30 30 16.569 0 30.001-13.431 30.001-30 0-16.568-13.432-30-30.001-30z"/>
        <path id="prefix__G" d="M30.3.549c-16.568 0-30 13.432-30 30 0 16.569 13.432 30 30 30 16.569 0 30.001-13.431 30.001-30"/>
        <path id="prefix__I" d="M30.3.549c-16.568 0-30 13.432-30 30 0 16.569 13.432 30 30 30 16.569 0 30.001-13.431 30.001-30"/>
    </defs>
    <g fill="none" fill-rule="evenodd">
        <g transform="translate(0 .45)">
            <path stroke="#FFF" stroke-width="3" d="M11.735 47.107l-1.173-.983c-4.163-3.477-6.912-5.771-6.912-8.586 0-2.293 1.957-4.096 4.446-4.096 1.408 0 2.757.603 3.639 1.557.881-.954 2.231-1.557 3.638-1.557 2.49 0 4.447 1.803 4.447 4.096 0 2.815-2.749 5.109-6.913 8.593l-1.172.976z"/>
            <mask id="prefix__b" fill="#fff">
                <use xlink:href="#prefix__a"/>
            </mask>
            <path fill="#E17459" d="M60.3 30.55c0 16.567-13.431 30-30 30-16.567 0-30-13.433-30-30 0-16.569 13.432-30 30-30 16.568 0 30 13.431 30 30" mask="url(#prefix__b)"/>
        </g>
        <g transform="translate(0 .45)">
            <mask id="prefix__d" fill="#fff">
                <use xlink:href="#prefix__c"/>
            </mask>
            <path fill="#E17459" d="M48.525 35.374l-1.353.938c-1.545 1.072-4.16-.321-5.228-2.787l-1.669-3.851c-.712-1.644-.493-3.265.538-3.98 1.03-.714 2.626-.35 3.915.893L47.75 29.5c1.933 1.865 2.321 4.802.775 5.874" mask="url(#prefix__d)"/>
            <mask id="prefix__f" fill="#fff">
                <use xlink:href="#prefix__e"/>
            </mask>
            <path stroke="#FFF" d="M48.525 35.374l-1.353.938c-1.545 1.072-4.16-.321-5.228-2.787l-1.669-3.851c-.712-1.644-.493-3.265.538-3.98 1.03-.714 2.626-.35 3.915.893L47.75 29.5c1.933 1.865 2.321 4.802.775 5.874z" mask="url(#prefix__f)"/>
            <mask id="prefix__h" fill="#fff">
                <use xlink:href="#prefix__g"/>
            </mask>
            <path fill="#E17459" d="M22.875 35.374l1.353.938c1.546 1.072 4.16-.321 5.228-2.787l1.669-3.851c.712-1.644.493-3.265-.538-3.98-1.03-.714-2.625-.35-3.915.893L23.65 29.5c-1.933 1.865-2.321 4.802-.775 5.874" mask="url(#prefix__h)"/>
            <mask id="prefix__j" fill="#fff">
                <use xlink:href="#prefix__i"/>
            </mask>
            <path stroke="#FFF" d="M22.875 35.374l1.353.938c1.546 1.072 4.16-.321 5.228-2.787l1.669-3.851c.712-1.644.493-3.265-.538-3.98-1.03-.714-2.625-.35-3.915.893L23.65 29.5c-1.933 1.865-2.321 4.802-.775 5.874z" mask="url(#prefix__j)"/>
            <mask id="prefix__l" fill="#fff">
                <use xlink:href="#prefix__k"/>
            </mask>
            <path fill="#E17459" d="M37.64 59.913H33.41c-4.83 0-8.308-1.468-6.956-7.688l2.114-14.467c.902-4.146 3.736-6.996 6.957-6.996 3.22 0 6.053 2.85 6.956 6.996l2.113 14.467c1.353 6.22-2.125 7.688-6.956 7.688" mask="url(#prefix__l)"/>
            <mask id="prefix__n" fill="#fff">
                <use xlink:href="#prefix__m"/>
            </mask>
            <path stroke="#FFF" d="M37.64 59.913H33.41c-4.83 0-8.308-1.468-6.956-7.688l2.114-14.467c.902-4.146 3.736-6.996 6.957-6.996 3.22 0 6.053 2.85 6.956 6.996l2.113 14.467c1.353 6.22-2.125 7.688-6.956 7.688z" mask="url(#prefix__n)"/>
            <g>
                <mask id="prefix__p" fill="#fff">
                    <use xlink:href="#prefix__o"/>
                </mask>
                <path fill="#E17459" d="M31.319 63.5c-.991 0-1.794-.803-1.794-1.794V44.889h3.588v16.817c0 .99-.804 1.794-1.794 1.794" mask="url(#prefix__p)"/>
            </g>
            <g>
                <mask id="prefix__r" fill="#fff">
                    <use xlink:href="#prefix__q"/>
                </mask>
                <path stroke="#FFF" d="M31.319 63.5h0c-.991 0-1.794-.803-1.794-1.794V44.889h3.588v16.817c0 .99-.804 1.794-1.794 1.794z" mask="url(#prefix__r)"/>
            </g>
            <g>
                <mask id="prefix__t" fill="#fff">
                    <use xlink:href="#prefix__s"/>
                </mask>
                <path fill="#E17459" d="M40.288 63.5c-.99 0-1.794-.803-1.794-1.794V44.889h3.588v16.817c0 .99-.803 1.794-1.794 1.794" mask="url(#prefix__t)"/>
            </g>
            <g>
                <mask id="prefix__v" fill="#fff">
                    <use xlink:href="#prefix__u"/>
                </mask>
                <path stroke="#FFF" d="M40.288 63.5h0c-.99 0-1.794-.803-1.794-1.794V44.889h3.588v16.817c0 .99-.803 1.794-1.794 1.794z" mask="url(#prefix__v)"/>
            </g>
            <g>
                <mask id="prefix__x" fill="#fff">
                    <use xlink:href="#prefix__w"/>
                </mask>
                <path fill="#E17459" d="M37.825 46.907h-4.36c-4.983 0-8.571-4.783-7.175-9.567l2.18-7.475c.929-3.188 3.853-5.381 7.175-5.381 3.322 0 6.245 2.193 7.175 5.38L45 37.34c1.395 4.784-2.193 9.567-7.175 9.567" mask="url(#prefix__x)"/>
            </g>
            <g>
                <mask id="prefix__z" fill="#fff">
                    <use xlink:href="#prefix__y"/>
                </mask>
                <path stroke="#FFF" d="M37.825 46.907h-4.36c-4.983 0-8.571-4.783-7.175-9.567l2.18-7.475c.929-3.188 3.853-5.381 7.175-5.381 3.322 0 6.245 2.193 7.175 5.38L45 37.34c1.395 4.784-2.193 9.567-7.175 9.567z" mask="url(#prefix__z)"/>
            </g>
            <g>
                <mask id="prefix__B" fill="#fff">
                    <use xlink:href="#prefix__A"/>
                </mask>
                <path fill="#FFF" d="M33.586 33.553c0 .688-.558 1.246-1.245 1.246-.69 0-1.246-.558-1.246-1.246s.557-1.246 1.246-1.246c.687 0 1.245.558 1.245 1.246" mask="url(#prefix__B)"/>
            </g>
            <g>
                <mask id="prefix__D" fill="#fff">
                    <use xlink:href="#prefix__C"/>
                </mask>
                <path fill="#FFF" d="M40.064 33.553c0 .688-.558 1.246-1.246 1.246s-1.246-.558-1.246-1.246.558-1.246 1.246-1.246 1.246.558 1.246 1.246" mask="url(#prefix__D)"/>
            </g>
            <g>
                <mask id="prefix__F" fill="#fff">
                    <use xlink:href="#prefix__E"/>
                </mask>
                <path stroke="#FFF" d="M37.638 37.937c1.176 0 1.847 1.341 1.147 2.286-.7.945-1.824 2.2-3.09 2.2-1.267 0-2.39-1.255-3.09-2.2-.7-.945-.029-2.286 1.146-2.286h3.887z" mask="url(#prefix__F)"/>
            </g>
            <g>
                <mask id="prefix__H" fill="#fff">
                    <use xlink:href="#prefix__G"/>
                </mask>
                <path stroke="#FFF" d="M35.607 42.669L35.607 46.484" mask="url(#prefix__H)"/>
            </g>
            <g>
                <mask id="prefix__J" fill="#fff">
                    <use xlink:href="#prefix__I"/>
                </mask>
                <path stroke="#FFF" d="M27.42 44.703S-3.36 50.016-1.41 21.48" mask="url(#prefix__J)"/>
            </g>
        </g>
        <path stroke="#FFF" d="M24.598 21.557l-1.136-.953c-4.034-3.37-6.697-5.591-6.697-8.318 0-2.223 1.896-3.968 4.308-3.968 1.363 0 2.671.584 3.525 1.508.854-.924 2.162-1.508 3.525-1.508 2.412 0 4.308 1.745 4.308 3.968 0 2.727-2.663 4.949-6.697 8.326l-1.136.945z"/>
    </g>
</svg>
