<svg xmlns="http://www.w3.org/2000/svg" xmlns:xlink="http://www.w3.org/1999/xlink" width="107" height="68" viewBox="0 0 107 68">
    <defs>
        <path id="prefix__a" d="M52.128 36.147v7.752h6.48v4.224h-6.48v13.344l.006.225c.052.992.052.992.57 1.575.576.648.576.648 1.536.648.552 0 .552 0 .924-.132s.372-.132.648-.276c.276-.144.276-.144.492-.276.216-.132.216-.132.432-.132.264 0 .264 0 .432.132.168.132.168.132.36.396l1.776 2.88-.293.233c-1.19.908-1.19.908-2.683 1.399-1.68.552-1.68.552-3.48.552-3.192 0-3.192 0-4.92-1.812-1.728-1.812-1.728-1.812-1.728-5.004V48.123h-2.496l-.156-.009c-.382-.043-.382-.043-.672-.303-.348-.312-.348-.312-.348-.936v-2.352l3.96-.648 1.248-6.72.039-.154c.115-.37.115-.37.405-.59.348-.264.348-.264.876-.264h3.072zm-22.404 7.152c2.328 0 2.328 0 4.284.744s1.956.744 3.372 2.172c1.416 1.428 1.416 1.428 2.208 3.504.792 2.076.792 2.076.792 4.74 0 .672 0 .672-.06 1.116-.06.444-.06.444-.216.696-.156.252-.156.252-.42.36-.264.108-.264.108-.672.108H23.796l.03.374c.323 3.507.323 3.507 2.01 5.194 1.776 1.776 1.776 1.776 4.704 1.776 1.44 0 1.44 0 2.484-.336s1.044-.336 1.824-.744.78-.408 1.368-.744c.588-.336.588-.336 1.14-.336.36 0 .36 0 .624.144s.264.144.456.408l1.728 2.16-.286.322c-.873.941-.873.941-1.922 1.61-1.224.78-1.224.78-2.556 1.248-1.332.468-1.332.468-2.712.66-1.38.192-1.38.192-2.676.192-2.568 0-2.568 0-4.776-.852-2.208-.852-2.208-.852-3.84-2.52-1.632-1.668-1.632-1.668-2.568-4.128-.936-2.46-.936-2.46-.936-5.7 0-2.52 0-2.52.816-4.74s.816-2.22 2.34-3.864c1.524-1.644 1.524-1.644 3.72-2.604 2.196-.96 2.196-.96 4.956-.96zm43.464 0c2.76 0 2.76 0 4.836.888 2.076.888 2.076.888 3.732 2.544l-1.56 2.16-.131.159c-.196.225-.196.225-.385.369-.252.192-.252.192-.732.192-.456 0-.456 0-.888-.276s-.432-.276-1.032-.624c-.6-.348-.6-.348-1.428-.624s-.828-.276-2.052-.276c-1.56 0-1.56 0-2.736.564-1.176.564-1.176.564-1.956 1.62s-.78 1.056-1.164 2.556c-.384 1.5-.384 1.5-.384 3.396 0 1.968 0 1.968.42 3.504s.42 1.536 1.212 2.58.792 1.044 1.92 1.584 1.128.54 2.544.54c1.416 0 1.416 0 2.292-.348.876-.348.876-.348 1.476-.768.6-.42.6-.42 1.044-.768.444-.348.444-.348.996-.348.72 0 .72 0 1.08.552l1.704 2.16-.285.322c-.864.941-.864.941-1.851 1.61-1.152.78-1.152.78-2.388 1.248-1.236.468-1.236.468-2.556.66s-1.32.192-2.616.192c-2.28 0-2.28 0-4.296-.852-2.016-.852-2.016-.852-3.516-2.484-1.5-1.632-1.5-1.632-2.376-3.996-.876-2.364-.876-2.364-.876-5.388 0-2.712 0-2.712.78-5.028.78-2.316.78-2.316 2.292-4.008 1.512-1.692 1.512-1.692 3.744-2.652 2.232-.96 2.232-.96 5.136-.96zM13.416 33.003c1.704 0 1.704 0 3.168.456l-.12 2.976-.015.134c-.093.579-.093.579-.633.73-.6.168-.6.168-1.392.168-1.056 0-1.056 0-1.884.228-.828.228-.828.228-1.404.792-.576.564-.576.564-.876 1.488-.3.924-.3.924-.3 2.292v1.632h6.408v4.224h-6.216v20.184H4.224v-20.16l-2.136-.336-.193-.04c-.563-.131-.563-.131-.923-.44-.42-.36-.42-.36-.42-1.008v-2.424h3.672v-1.824l.006-.418c.058-1.862.058-1.862.63-3.374.636-1.68.636-1.68 1.824-2.856 1.188-1.176 1.188-1.176 2.892-1.8 1.704-.624 1.704-.624 3.84-.624zm77.856-.36v13.704l.324-.297c1.308-1.164 1.308-1.164 2.844-1.911 1.728-.84 1.728-.84 4.056-.84 2.016 0 2.016 0 3.576.684s1.56.684 2.604 1.92c1.044 1.236 1.044 1.236 1.584 2.952s.54 1.716.54 3.78v15.672h-5.928V52.635l-.005-.296c-.065-2.042-.065-2.042-1.039-3.196-1.044-1.236-1.044-1.236-3.132-1.236-1.536 0-1.536 0-2.88.696-1.344.696-1.344.696-2.544 1.896v17.808h-5.928V32.643h5.928zM29.844 47.547c-2.592 0-2.592 0-4.056 1.464s-1.464 1.464-1.872 4.152h11.136c0-1.152 0-1.152-.312-2.172-.312-1.02-.312-1.02-.96-1.788-.648-.768-.648-.768-1.632-1.212-.984-.444-.984-.444-2.304-.444zM48.83 10.094l1.476 1.254c5.238 4.439 8.697 7.366 8.697 10.956 0 2.927-2.464 5.226-5.595 5.226-1.77 0-3.47-.768-4.578-1.985-1.108 1.217-2.809 1.985-4.579 1.985-3.133 0-5.594-2.299-5.594-5.226 0-3.59 3.456-6.517 8.696-10.965l1.477-1.245zM63.334 8.26c2.137 0 3.88 1.59 3.987 3.59l.005.196v.688c0 2.024-1.677 3.679-3.787 3.78l-.205.005h-.34c-2.136 0-3.88-1.592-3.986-3.59l-.005-.195v-.688c0-2.027 1.676-3.68 3.786-3.781l.205-.005h.34zm-27.744 0c2.136 0 3.88 1.59 3.986 3.59l.006.196v.688c0 2.024-1.677 3.679-3.787 3.78l-.205.005h-.34c-2.136 0-3.88-1.592-3.986-3.59l-.006-.195v-.688c0-2.027 1.677-3.68 3.787-3.781l.205-.005h.34zM55.012 0c2.134 0 3.878 1.59 3.985 3.59l.006.195v.689c0 2.024-1.679 3.679-3.786 3.78l-.205.005h-.342c-2.136 0-3.879-1.592-3.985-3.59l-.006-.195v-.689c0-2.026 1.676-3.679 3.786-3.78L54.67 0h.342zM42.989 0c2.205 0 3.991 1.694 3.991 3.785v.689c0 2.089-1.786 3.785-3.99 3.785h-.342c-2.203 0-3.991-1.696-3.991-3.785v-.689c0-2.091 1.788-3.785 3.99-3.785h.342z"/>
    </defs>
    <g fill="none" fill-rule="evenodd">
        <mask id="prefix__b" fill="#fff">
            <use xlink:href="#prefix__a"/>
        </mask>
        <use fill="#E17459" xlink:href="#prefix__a"/>
        <g fill="#101010" mask="url(#prefix__b)">
            <path d="M0 0H389.741V121.2H0z" transform="translate(-137.27 -42)"/>
        </g>
    </g>
</svg>
