<svg xmlns="http://www.w3.org/2000/svg" xmlns:xlink="http://www.w3.org/1999/xlink" width="110" height="73" viewBox="0 0 110 73">
    <defs>
        <path id="prefix__a" d="M52.997 37.125v7.881h6.588V49.3h-6.588v13.567l.006.229c.052 1.008.052 1.008.58 1.6.585.66.585.66 1.561.66.561 0 .561 0 .94-.135.378-.134.378-.134.658-.28.28-.147.28-.147.5-.28.22-.135.22-.135.44-.135.268 0 .268 0 .439.134.17.134.17.134.366.403l1.805 2.928-.297.237c-1.21.923-1.21.923-2.728 1.422-1.708.561-1.708.561-3.538.561-3.245 0-3.245 0-5.002-1.842-1.757-1.842-1.757-1.842-1.757-5.087V49.3h-2.538l-.136-.006c-.402-.039-.402-.039-.705-.31-.354-.318-.354-.318-.354-.952V45.64l4.026-.658 1.269-6.832.04-.157c.116-.376.116-.376.411-.6.354-.268.354-.268.89-.268h3.124zm-22.778 7.271c2.367 0 2.367 0 4.356.756 1.988.757 1.988.757 3.428 2.209 1.44 1.451 1.44 1.451 2.245 3.562.805 2.11.805 2.11.805 4.819 0 .683 0 .683-.061 1.135-.061.451-.061.451-.22.707-.158.256-.158.256-.427.366-.268.11-.268.11-.683.11h-15.47l.031.38c.328 3.565.328 3.565 2.044 5.28 1.805 1.806 1.805 1.806 4.782 1.806 1.464 0 1.464 0 2.525-.341 1.062-.342 1.062-.342 1.855-.757.793-.414.793-.414 1.39-.756.598-.342.598-.342 1.16-.342.366 0 .366 0 .634.147.268.146.268.146.464.415l1.756 2.196-.29.326c-.888.958-.888.958-1.954 1.638-1.245.793-1.245.793-2.599 1.269-1.354.475-1.354.475-2.757.67-1.403.196-1.403.196-2.72.196-2.612 0-2.612 0-4.856-.866-2.245-.867-2.245-.867-3.904-2.562-1.66-1.696-1.66-1.696-2.611-4.197-.952-2.501-.952-2.501-.952-5.795 0-2.562 0-2.562.83-4.82.83-2.256.83-2.256 2.379-3.928 1.55-1.671 1.55-1.671 3.782-2.647 2.232-.976 2.232-.976 5.038-.976zm44.189 0c2.806 0 2.806 0 4.916.903 2.111.903 2.111.903 3.795 2.586l-1.586 2.196-.134.162c-.199.229-.199.229-.391.375-.256.195-.256.195-.744.195-.464 0-.464 0-.903-.28-.44-.281-.44-.281-1.05-.635-.61-.354-.61-.354-1.451-.634-.842-.28-.842-.28-2.086-.28-1.586 0-1.586 0-2.782.573-1.195.573-1.195.573-1.988 1.647-.793 1.073-.793 1.073-1.184 2.598-.39 1.525-.39 1.525-.39 3.453 0 2 0 2 .427 3.562.427 1.562.427 1.562 1.232 2.623.805 1.062.805 1.062 1.952 1.61 1.147.55 1.147.55 2.586.55 1.44 0 1.44 0 2.33-.354.891-.354.891-.354 1.501-.781.61-.427.61-.427 1.062-.78.451-.355.451-.355 1.012-.355.732 0 .732 0 1.098.562l1.733 2.196-.29.326c-.878.958-.878.958-1.882 1.638-1.171.793-1.171.793-2.428 1.269-1.256.475-1.256.475-2.598.67-1.342.196-1.342.196-2.66.196-2.318 0-2.318 0-4.368-.866-2.05-.867-2.05-.867-3.574-2.526-1.525-1.659-1.525-1.659-2.416-4.062-.89-2.404-.89-2.404-.89-5.478 0-2.757 0-2.757.793-5.112s.793-2.355 2.33-4.075c1.537-1.72 1.537-1.72 3.806-2.696 2.27-.976 2.27-.976 5.222-.976zM13.64 33.928c1.732 0 1.732 0 3.22.464l-.122 3.026-.015.136c-.094.588-.094.588-.643.742-.61.17-.61.17-1.416.17-1.073 0-1.073 0-1.915.233-.842.231-.842.231-1.427.805-.586.573-.586.573-.891 1.513-.305.939-.305.939-.305 2.33v1.659h6.515V49.3h-6.32v20.52H4.294V49.326l-2.171-.342-.197-.04c-.572-.134-.572-.134-.938-.448-.427-.366-.427-.366-.427-1.025v-2.464h3.733v-1.854l.007-.425c.058-1.893.058-1.893.64-3.43.647-1.709.647-1.709 1.854-2.904 1.208-1.196 1.208-1.196 2.94-1.83 1.733-.635 1.733-.635 3.905-.635zm79.153-.366v13.933l.33-.303c1.33-1.183 1.33-1.183 2.891-1.942 1.757-.854 1.757-.854 4.124-.854 2.05 0 2.05 0 3.635.695 1.586.696 1.586.696 2.648 1.952 1.061 1.257 1.061 1.257 1.61 3.002.549 1.744.549 1.744.549 3.843V69.82h-6.027V53.888l-.005-.302c-.066-2.076-.066-2.076-1.056-3.249-1.062-1.256-1.062-1.256-3.184-1.256-1.562 0-1.562 0-2.928.707-1.367.708-1.367.708-2.587 1.928v18.105h-6.027V33.562h6.027zM30.341 48.715c-2.635 0-2.635 0-4.123 1.488-1.489 1.489-1.489 1.489-1.903 4.221h11.321c0-1.17 0-1.17-.317-2.208-.317-1.037-.317-1.037-.976-1.818-.659-.78-.659-.78-1.66-1.232-1-.451-1-.451-2.342-.451zm19.3-38.42l1.501 1.279c5.325 4.526 8.84 7.512 8.84 11.173 0 2.985-2.503 5.33-5.687 5.33-1.799 0-3.528-.784-4.654-2.024-1.126 1.24-2.855 2.024-4.654 2.024-3.186 0-5.688-2.345-5.688-5.33 0-3.661 3.514-6.647 8.841-11.183l1.501-1.27zm14.745-1.872c2.174 0 3.948 1.625 4.053 3.668l.005.193v.702c0 2.066-1.707 3.755-3.855 3.855l-.203.005h-.345c-2.174 0-3.948-1.626-4.053-3.668l-.005-.192v-.702c0-2.069 1.708-3.756 3.855-3.856l.203-.005h.345zm-28.205 0c2.174 0 3.948 1.625 4.053 3.668l.005.193v.702c0 2.066-1.707 3.755-3.855 3.855l-.203.005h-.345c-2.174 0-3.948-1.626-4.053-3.668l-.005-.192v-.702c0-2.069 1.707-3.756 3.855-3.856l.203-.005h.345zM55.926 0c2.171 0 3.946 1.625 4.052 3.668l.005.193v.701c0 2.067-1.71 3.756-3.855 3.856l-.202.005h-.348c-2.173 0-3.946-1.627-4.052-3.668l-.005-.192V3.86c0-2.069 1.708-3.756 3.855-3.856L55.578 0h.348zM43.704 0c2.241 0 4.057 1.728 4.057 3.86v.703c0 2.13-1.816 3.86-4.057 3.86h-.348c-2.239 0-4.057-1.73-4.057-3.86V3.86C39.3 1.728 41.117 0 43.356 0h.348z"/>
    </defs>
    <g fill="none" fill-rule="evenodd" transform="translate(0 1.217)">
        <mask id="prefix__b" fill="#fff">
            <use xlink:href="#prefix__a"/>
        </mask>
        <use fill="#E17459" xlink:href="#prefix__a"/>
        <g fill="#101010" mask="url(#prefix__b)">
            <path d="M0 0H396.959V122.883H0z" transform="translate(-139.813 -42.583)"/>
        </g>
    </g>
</svg>
