<svg xmlns="http://www.w3.org/2000/svg" width="63" height="61" viewBox="0 0 63 61">
    <g fill="none" fill-rule="evenodd">
        <path fill="#E17459" d="M63 30.5C63 47.344 48.896 61 31.5 61S0 47.344 0 30.5 14.104 0 31.5 0 63 13.656 63 30.5"/>
        <path fill="#E17459" d="M41.438 28.928l-1.038.697c-1.187.796-3.193-.239-4.015-2.072l-1.28-2.862c-.547-1.222-.379-2.426.412-2.958.792-.53 2.016-.26 3.006.664l2.32 2.165c1.484 1.386 1.782 3.569.595 4.366"/>
        <path stroke="#FFF" d="M41.438 28.928l-1.038.697c-1.187.796-3.193-.239-4.015-2.072l-1.28-2.862c-.547-1.222-.379-2.426.412-2.958.792-.53 2.016-.26 3.006.664l2.32 2.165c1.484 1.386 1.782 3.569.595 4.366z"/>
        <path fill="#E17459" d="M21.747 28.928l1.039.697c1.186.796 3.193-.239 4.014-2.072l1.28-2.862c.547-1.222.38-2.426-.412-2.958-.791-.53-2.016-.26-3.006.664l-2.32 2.165c-1.484 1.386-1.781 3.569-.595 4.366l45.255-7.195"/>
        <path stroke="#FFF" d="M21.747 28.928l1.039.697c1.186.796 3.193-.239 4.014-2.072l1.28-2.862c.547-1.222.38-2.426-.412-2.958-.791-.53-2.016-.26-3.006.664l-2.32 2.165c-1.484 1.386-1.781 3.569-.595 4.366z"/>
        <path fill="#E17459" d="M33.224 37.5h-3.348c-3.824 0-6.578-3.555-5.508-7.112l1.674-5.555c.715-2.37 2.959-4 5.508-4 2.55 0 4.795 1.63 5.508 4l1.674 5.555c1.071 3.557-1.682 7.112-5.508 7.112"/>
        <path stroke="#FFF" d="M33.224 37.5h-3.348c-3.824 0-6.578-3.555-5.508-7.112l1.674-5.555c.715-2.37 2.959-4 5.508-4 2.55 0 4.795 1.63 5.508 4l1.674 5.555c1.071 3.557-1.682 7.112-5.508 7.112z"/>
        <path fill="#FFF" d="M29.97 27.574c0 .512-.428.926-.956.926-.529 0-.956-.414-.956-.926 0-.511.427-.926.956-.926.528 0 .956.415.956.926M34.942 27.574c0 .512-.427.926-.955.926s-.957-.414-.957-.926c0-.511.429-.926.957-.926s.955.415.955.926"/>
        <path stroke="#FFF" d="M33.08 30.833c.903 0 1.419.997.881 1.7-.538.702-1.4 1.634-2.372 1.634-.973 0-1.835-.932-2.373-1.634-.536-.703-.022-1.7.881-1.7h2.983zM31.522 34.35L31.522 37.187"/>
        <path stroke="#FFF" d="M44.65 16.982c0-2.476-2.177-4.482-4.865-4.482H23.283c-2.687 0-4.865 2.006-4.865 4.482v26.814h26.233V16.982z"/>
        <path stroke="#FFF" d="M23.284 50.666h16.501c2.687 0 4.866-2.006 4.866-4.482v-2.39H18.418v2.39c0 2.476 2.178 4.482 4.866 4.482z"/>
        <path stroke="#FFF" d="M33.05 47.334c0 .92-.771 1.666-1.723 1.666-.95 0-1.72-.746-1.72-1.666 0-.922.77-1.668 1.72-1.668.952 0 1.722.746 1.722 1.668z"/>
    </g>
</svg>