<svg xmlns="http://www.w3.org/2000/svg" width="61" height="62" viewBox="0 0 61 62">
    <g fill="none" fill-rule="evenodd">
        <path fill="#E17459" d="M30.5 62C13.656 62 0 48.12 0 31 0 13.88 13.656 0 30.5 0S61 13.88 61 31c0 17.12-13.656 31-30.5 31z"/>
        <path fill="#E17459" d="M30.426 36.513l-1.288.907c-1.472 1.038-3.96-.31-4.976-2.696l-1.59-3.726c-.677-1.59-.469-3.16.512-3.85.981-.693 2.5-.341 3.727.863l2.876 2.819c1.843 1.805 2.21 4.646.74 5.683"/>
        <path stroke="#FFF" d="M30.426 36.513l-1.288.907c-1.472 1.038-3.96-.31-4.976-2.696l-1.59-3.726c-.677-1.59-.469-3.16.512-3.85.981-.693 2.5-.341 3.727.863l2.876 2.819c1.843 1.805 2.21 4.646.74 5.683z"/>
        <path fill="#E17459" d="M6.008 36.513l1.288.907c1.47 1.038 3.96-.31 4.976-2.696l1.59-3.726c.678-1.59.47-3.16-.512-3.85-.982-.693-2.5-.341-3.727.863L6.746 30.83c-1.841 1.805-2.21 4.646-.738 5.683"/>
        <path stroke="#FFF" d="M6.008 36.513l1.288.907c1.47 1.038 3.96-.31 4.976-2.696l1.59-3.726c.678-1.59.47-3.16-.512-3.85-.982-.693-2.5-.341-3.727.863L6.746 30.83c-1.841 1.805-2.21 4.646-.738 5.683z"/>
        <path fill="#E17459" d="M20.24 47.672h-4.151c-4.744 0-8.159-4.628-6.831-9.256l2.075-7.234c.886-3.085 3.67-5.207 6.831-5.207 3.163 0 5.946 2.122 6.832 5.207l2.075 7.234c1.328 4.628-2.087 9.256-6.831 9.256"/>
        <path stroke="#FFF" d="M20.24 47.672h-4.151c-4.744 0-8.159-4.628-6.831-9.256l2.075-7.234c.886-3.085 3.67-5.207 6.831-5.207 3.163 0 5.946 2.122 6.832 5.207l2.075 7.234c1.328 4.628-2.087 9.256-6.831 9.256z"/>
        <path stroke="#FFF" d="M20.062 38.994c1.12 0 1.758 1.298 1.092 2.212-.667.915-1.736 2.127-2.942 2.127-1.206 0-2.276-1.212-2.942-2.127-.666-.914-.028-2.212 1.092-2.212h3.7zM18.128 43.572L18.128 47.264M18.37 21.228l-.73-.623c-2.595-2.202-4.307-3.655-4.307-5.437 0-1.453 1.219-2.594 2.771-2.594.876 0 1.717.382 2.266.986.55-.604 1.39-.986 2.267-.986 1.552 0 2.771 1.14 2.771 2.594 0 1.782-1.712 3.235-4.307 5.442l-.73.618zM42.903 21.228l-.73-.623c-2.595-2.202-4.308-3.655-4.308-5.437 0-1.453 1.219-2.594 2.771-2.594.877 0 1.718.382 2.267.986.549-.604 1.39-.986 2.267-.986 1.552 0 2.77 1.14 2.77 2.594 0 1.782-1.712 3.235-4.306 5.442l-.731.618z"/>
        <path fill="#FFF" d="M16.204 34.75c0 .667-.53 1.206-1.185 1.206-.656 0-1.187-.54-1.187-1.206 0-.665.531-1.206 1.187-1.206.655 0 1.185.54 1.185 1.206M22.372 34.75c0 .667-.531 1.206-1.187 1.206-.655 0-1.185-.54-1.185-1.206 0-.665.53-1.206 1.185-1.206.656 0 1.187.54 1.187 1.206"/>
        <path fill="#E17459" d="M35.028 36.827v-9.195c0-.321.403-.458.592-.2l6.912 9.395h-7.504z"/>
        <path stroke="#FFF" d="M35.028 36.827v-9.195c0-.321.403-.458.592-.2l6.912 9.395h-7.504z"/>
        <path fill="#E17459" d="M51.865 37.038v-9.195c0-.32-.403-.457-.593-.2l-6.912 9.395h7.505z"/>
        <path stroke="#FFF" d="M51.865 37.038v-9.195c0-.32-.403-.457-.593-.2l-6.912 9.395h7.505z"/>
        <path fill="#E17459" d="M44.77 45.945h-2.563c-4.008 0-7.257-3.303-7.257-7.377s3.25-7.377 7.257-7.377h2.562c4.009 0 7.26 3.303 7.26 7.377s-3.251 7.377-7.26 7.377"/>
        <path stroke="#FFF" d="M44.77 45.945h-2.563c-4.008 0-7.257-3.303-7.257-7.377s3.25-7.377 7.257-7.377h2.562c4.009 0 7.26 3.303 7.26 7.377s-3.251 7.377-7.26 7.377z"/>
        <path fill="#FFF" d="M41.152 37.788c0 .666-.53 1.206-1.186 1.206-.655 0-1.186-.54-1.186-1.206 0-.666.53-1.206 1.186-1.206.655 0 1.186.54 1.186 1.206M48.173 37.788c0 .666-.531 1.206-1.186 1.206-.656 0-1.186-.54-1.186-1.206 0-.666.53-1.206 1.186-1.206.655 0 1.186.54 1.186 1.206M44.808 40.202c.659 0 1.037.801.643 1.367-.393.565-1.023 1.314-1.734 1.314-.71 0-1.342-.749-1.735-1.314-.393-.566-.016-1.367.644-1.367h2.182z"/>
        <path stroke="#FFF" d="M49.026 42.031L46.038 42.031M47.319 43.767L45.184 43.767M38.067 42.031L41.055 42.031M39.775 43.767L41.91 43.767"/>
        <path fill="#FFF" d="M43.05 45.503L44.331 45.503 44.331 42.466 43.05 42.466z"/>
    </g>
</svg>
