<svg xmlns="http://www.w3.org/2000/svg" xmlns:xlink="http://www.w3.org/1999/xlink" width="61" height="62" viewBox="0 0 61 62">
    <defs>
        <path id="prefix__a" d="M0.306 0.568L61.305 0.568 61.305 62.568 0.306 62.568z"/>
        <path id="prefix__c" d="M30.805.567c-16.844 0-30.5 13.88-30.5 31 0 17.122 13.656 31 30.5 31 16.845 0 30.501-13.878 30.501-31"/>
        <path id="prefix__e" d="M30.805.567c-16.844 0-30.5 13.88-30.5 31 0 17.122 13.656 31 30.5 31 16.845 0 30.501-13.878 30.501-31 0-17.12-13.656-31-30.501-31z"/>
        <path id="prefix__g" d="M30.805.567c-16.844 0-30.5 13.88-30.5 31 0 17.122 13.656 31 30.5 31 16.845 0 30.501-13.878 30.501-31"/>
        <path id="prefix__i" d="M30.805.567c-16.844 0-30.5 13.88-30.5 31 0 17.122 13.656 31 30.5 31 16.845 0 30.501-13.878 30.501-31 0-17.12-13.656-31-30.501-31z"/>
        <path id="prefix__k" d="M30.805.567c-16.844 0-30.5 13.88-30.5 31 0 17.122 13.656 31 30.5 31 16.845 0 30.501-13.878 30.501-31"/>
        <path id="prefix__m" d="M30.805.567c-16.844 0-30.5 13.88-30.5 31 0 17.122 13.656 31 30.5 31 16.845 0 30.501-13.878 30.501-31 0-17.12-13.656-31-30.501-31z"/>
        <path id="prefix__o" d="M30.805.567c-16.844 0-30.5 13.88-30.5 31 0 17.122 13.656 31 30.5 31 16.845 0 30.501-13.878 30.501-31"/>
        <path id="prefix__q" d="M30.805.567c-16.844 0-30.5 13.88-30.5 31 0 17.122 13.656 31 30.5 31 16.845 0 30.501-13.878 30.501-31 0-17.12-13.656-31-30.501-31z"/>
        <path id="prefix__s" d="M30.805.567c-16.844 0-30.5 13.88-30.5 31 0 17.122 13.656 31 30.5 31 16.845 0 30.501-13.878 30.501-31"/>
        <path id="prefix__u" d="M30.805.567c-16.844 0-30.5 13.88-30.5 31 0 17.122 13.656 31 30.5 31 16.845 0 30.501-13.878 30.501-31 0-17.12-13.656-31-30.501-31z"/>
        <path id="prefix__w" d="M30.805.567c-16.844 0-30.5 13.88-30.5 31 0 17.122 13.656 31 30.5 31 16.845 0 30.501-13.878 30.501-31"/>
        <path id="prefix__y" d="M30.805.567c-16.844 0-30.5 13.88-30.5 31 0 17.122 13.656 31 30.5 31 16.845 0 30.501-13.878 30.501-31 0-17.12-13.656-31-30.501-31z"/>
        <path id="prefix__A" d="M30.805.567c-16.844 0-30.5 13.88-30.5 31 0 17.122 13.656 31 30.5 31 16.845 0 30.501-13.878 30.501-31"/>
        <path id="prefix__C" d="M30.805.567c-16.844 0-30.5 13.88-30.5 31 0 17.122 13.656 31 30.5 31 16.845 0 30.501-13.878 30.501-31"/>
        <path id="prefix__E" d="M30.805.567c-16.844 0-30.5 13.88-30.5 31 0 17.122 13.656 31 30.5 31 16.845 0 30.501-13.878 30.501-31 0-17.12-13.656-31-30.501-31z"/>
        <path id="prefix__G" d="M30.805.567c-16.844 0-30.5 13.88-30.5 31 0 17.122 13.656 31 30.5 31 16.845 0 30.501-13.878 30.501-31"/>
        <path id="prefix__I" d="M30.805.567c-16.844 0-30.5 13.88-30.5 31 0 17.122 13.656 31 30.5 31 16.845 0 30.501-13.878 30.501-31"/>
    </defs>
    <g fill="none" fill-rule="evenodd">
        <g transform="translate(0 .967) translate(0 .466)">
            <path stroke="#FFF" stroke-width="3" d="M11.93 48.677l-1.192-1.016c-4.232-3.593-7.027-5.963-7.027-8.872 0-2.37 1.99-4.232 4.52-4.232 1.431 0 2.803.623 3.7 1.608.895-.985 2.268-1.608 3.698-1.608 2.532 0 4.521 1.863 4.521 4.232 0 2.909-2.794 5.28-7.028 8.88l-1.191 1.008z"/>
            <mask id="prefix__b" fill="#fff">
                <use xlink:href="#prefix__a"/>
            </mask>
            <path fill="#E17459" d="M61.306 31.568c0 17.12-13.656 31-30.5 31-16.845 0-30.5-13.88-30.5-31 0-17.12 13.655-31 30.5-31 16.844 0 30.5 13.88 30.5 31" mask="url(#prefix__b)"/>
        </g>
        <g transform="translate(0 .967) translate(0 .466)">
            <mask id="prefix__d" fill="#fff">
                <use xlink:href="#prefix__c"/>
            </mask>
            <path fill="#E17459" d="M49.334 36.553l-1.376.97c-1.57 1.107-4.229-.332-5.315-2.88l-1.697-3.98c-.724-1.699-.5-3.374.547-4.112 1.047-.738 2.67-.362 3.98.922l3.073 3.01c1.965 1.927 2.36 4.962.788 6.07" mask="url(#prefix__d)"/>
            <mask id="prefix__f" fill="#fff">
                <use xlink:href="#prefix__e"/>
            </mask>
            <path stroke="#FFF" d="M49.334 36.553l-1.376.97c-1.57 1.107-4.229-.332-5.315-2.88l-1.697-3.98c-.724-1.699-.5-3.374.547-4.112 1.047-.738 2.67-.362 3.98.922l3.073 3.01c1.965 1.927 2.36 4.962.788 6.07z" mask="url(#prefix__f)"/>
            <mask id="prefix__h" fill="#fff">
                <use xlink:href="#prefix__g"/>
            </mask>
            <path fill="#E17459" d="M23.256 36.553l1.375.97c1.572 1.107 4.23-.332 5.316-2.88l1.696-3.98c.724-1.699.502-3.374-.547-4.112-1.047-.738-2.668-.362-3.98.922l-3.072 3.01c-1.965 1.927-2.36 4.962-.788 6.07" mask="url(#prefix__h)"/>
            <mask id="prefix__j" fill="#fff">
                <use xlink:href="#prefix__i"/>
            </mask>
            <path stroke="#FFF" d="M23.256 36.553l1.375.97c1.572 1.107 4.23-.332 5.316-2.88l1.696-3.98c.724-1.699.502-3.374-.547-4.112-1.047-.738-2.668-.362-3.98.922l-3.072 3.01c-1.965 1.927-2.36 4.962-.788 6.07z" mask="url(#prefix__j)"/>
            <mask id="prefix__l" fill="#fff">
                <use xlink:href="#prefix__k"/>
            </mask>
            <path fill="#E17459" d="M38.267 61.91h-4.299c-4.91 0-8.446-1.517-7.072-7.944l2.15-14.949c.916-4.284 3.798-7.23 7.072-7.23 3.273 0 6.154 2.946 7.072 7.23l2.149 14.95c1.375 6.426-2.16 7.943-7.072 7.943" mask="url(#prefix__l)"/>
            <mask id="prefix__n" fill="#fff">
                <use xlink:href="#prefix__m"/>
            </mask>
            <path stroke="#FFF" d="M38.267 61.91h-4.299c-4.91 0-8.446-1.517-7.072-7.944l2.15-14.949c.916-4.284 3.798-7.23 7.072-7.23 3.273 0 6.154 2.946 7.072 7.23l2.149 14.95c1.375 6.426-2.16 7.943-7.072 7.943z" mask="url(#prefix__n)"/>
            <g>
                <mask id="prefix__p" fill="#fff">
                    <use xlink:href="#prefix__o"/>
                </mask>
                <path fill="#E17459" d="M31.841 65.617c-1.008 0-1.824-.83-1.824-1.854V46.385h3.648v17.378c0 1.024-.818 1.854-1.824 1.854" mask="url(#prefix__p)"/>
            </g>
            <g>
                <mask id="prefix__r" fill="#fff">
                    <use xlink:href="#prefix__q"/>
                </mask>
                <path stroke="#FFF" d="M31.841 65.617h0c-1.008 0-1.824-.83-1.824-1.854V46.385h3.648v17.378c0 1.024-.818 1.854-1.824 1.854z" mask="url(#prefix__r)"/>
            </g>
            <g>
                <mask id="prefix__t" fill="#fff">
                    <use xlink:href="#prefix__s"/>
                </mask>
                <path fill="#E17459" d="M40.96 65.617c-1.007 0-1.825-.83-1.825-1.854V46.385h3.648v17.378c0 1.024-.816 1.854-1.824 1.854" mask="url(#prefix__t)"/>
            </g>
            <g>
                <mask id="prefix__v" fill="#fff">
                    <use xlink:href="#prefix__u"/>
                </mask>
                <path stroke="#FFF" d="M40.96 65.617h0c-1.007 0-1.825-.83-1.825-1.854V46.385h3.648v17.378c0 1.024-.816 1.854-1.824 1.854z" mask="url(#prefix__v)"/>
            </g>
            <g>
                <mask id="prefix__x" fill="#fff">
                    <use xlink:href="#prefix__w"/>
                </mask>
                <path fill="#E17459" d="M38.455 48.47h-4.432c-5.066 0-8.714-4.942-7.295-9.886l2.216-7.724c.945-3.294 3.918-5.56 7.295-5.56s6.35 2.266 7.295 5.56l2.217 7.724c1.417 4.944-2.23 9.886-7.296 9.886" mask="url(#prefix__x)"/>
            </g>
            <g>
                <mask id="prefix__z" fill="#fff">
                    <use xlink:href="#prefix__y"/>
                </mask>
                <path stroke="#FFF" d="M38.455 48.47h-4.432c-5.066 0-8.714-4.942-7.295-9.886l2.216-7.724c.945-3.294 3.918-5.56 7.295-5.56s6.35 2.266 7.295 5.56l2.217 7.724c1.417 4.944-2.23 9.886-7.296 9.886z" mask="url(#prefix__z)"/>
            </g>
            <g>
                <mask id="prefix__B" fill="#fff">
                    <use xlink:href="#prefix__A"/>
                </mask>
                <path fill="#FFF" d="M34.145 34.671c0 .711-.567 1.288-1.265 1.288-.7 0-1.267-.577-1.267-1.288 0-.71.566-1.288 1.267-1.288.698 0 1.265.577 1.265 1.288" mask="url(#prefix__B)"/>
            </g>
            <g>
                <mask id="prefix__D" fill="#fff">
                    <use xlink:href="#prefix__C"/>
                </mask>
                <path fill="#FFF" d="M40.732 34.671c0 .711-.567 1.288-1.267 1.288s-1.267-.577-1.267-1.288c0-.71.568-1.288 1.267-1.288.7 0 1.267.577 1.267 1.288" mask="url(#prefix__D)"/>
            </g>
            <g>
                <mask id="prefix__F" fill="#fff">
                    <use xlink:href="#prefix__E"/>
                </mask>
                <path stroke="#FFF" d="M38.266 39.202c1.195 0 1.877 1.386 1.166 2.362-.713.977-1.855 2.272-3.142 2.272-1.288 0-2.43-1.295-3.142-2.272-.712-.976-.029-2.362 1.166-2.362h3.952z" mask="url(#prefix__F)"/>
            </g>
            <g>
                <mask id="prefix__H" fill="#fff">
                    <use xlink:href="#prefix__G"/>
                </mask>
                <path stroke="#FFF" d="M36.201 44.092L36.201 48.034" mask="url(#prefix__H)"/>
            </g>
            <g>
                <mask id="prefix__J" fill="#fff">
                    <use xlink:href="#prefix__I"/>
                </mask>
                <path stroke="#FFF" d="M27.878 46.193s-31.293 5.49-29.313-23.995" mask="url(#prefix__J)"/>
            </g>
        </g>
        <path stroke="#FFF" d="M25.008 22.275l-1.155-.985c-4.1-3.48-6.808-5.777-6.808-8.595 0-2.297 1.927-4.1 4.38-4.1 1.385 0 2.715.603 3.583 1.558.869-.955 2.198-1.558 3.584-1.558 2.452 0 4.38 1.803 4.38 4.1 0 2.818-2.708 5.114-6.809 8.604l-1.155.976z" transform="translate(0 .967)"/>
    </g>
</svg>
