<svg xmlns="http://www.w3.org/2000/svg" width="159" height="48" viewBox="0 0 159 48">
    <defs>
        <linearGradient id="prefix__a" x1="60.525%" x2="27.586%" y1="4.948%" y2="71.907%">
            <stop offset="0%" stop-color="#00A0FF"/>
            <stop offset="1%" stop-color="#00A1FF"/>
            <stop offset="26%" stop-color="#00BEFF"/>
            <stop offset="51%" stop-color="#00D2FF"/>
            <stop offset="76%" stop-color="#00DFFF"/>
            <stop offset="100%" stop-color="#00E3FF"/>
        </linearGradient>
        <linearGradient id="prefix__b" x1="107.685%" x2="-130.64%" y1="50%" y2="50%">
            <stop offset="0%" stop-color="#FFE000"/>
            <stop offset="41%" stop-color="#FFBD00"/>
            <stop offset="78%" stop-color="orange"/>
            <stop offset="100%" stop-color="#FF9C00"/>
        </linearGradient>
        <linearGradient id="prefix__c" x1="86.219%" x2="-50.15%" y1="29.988%" y2="140.145%">
            <stop offset="0%" stop-color="#FF3A44"/>
            <stop offset="100%" stop-color="#C31162"/>
        </linearGradient>
        <linearGradient id="prefix__d" x1="-18.754%" x2="42.121%" y1="-14.821%" y2="34.374%">
            <stop offset="0%" stop-color="#32A071"/>
            <stop offset="7%" stop-color="#2DA771"/>
            <stop offset="48%" stop-color="#15CF74"/>
            <stop offset="80%" stop-color="#06E775"/>
            <stop offset="100%" stop-color="#00F076"/>
        </linearGradient>
    </defs>
    <g fill="none">
        <rect width="158.22" height="48" fill="#000" rx="6"/>
        <path d="M152.36.96c2.719 0 4.922 2.256 4.922 5.04v36c0 2.784-2.203 5.04-4.922 5.04H5.86C3.141 47.04.938 44.784.938 42V6C.938 3.216 3.14.96 5.86.96h146.5zm0-.96H5.86C2.624 0 0 2.686 0 6v36c0 3.314 2.624 6 5.86 6h146.5c3.236 0 5.86-2.686 5.86-6V6c0-3.314-2.624-6-5.86-6z"/>
        <path fill="#FFF" d="M79.86 26.1c-2.748.013-4.966 2.302-4.957 5.116.008 2.813 2.24 5.088 4.988 5.084 2.748-.004 4.973-2.286 4.974-5.1.019-1.363-.503-2.675-1.446-3.637-.944-.961-2.228-1.49-3.559-1.463zm0 8.196c-1.238.089-2.404-.607-2.94-1.754-.534-1.147-.33-2.512.515-3.443.846-.93 2.161-1.238 3.317-.774 1.156.464 1.918 1.604 1.92 2.875.039.795-.238 1.572-.768 2.155-.53.583-1.267.923-2.044.941zM68.95 26.1c-2.75.007-4.974 2.293-4.97 5.108.005 2.815 2.236 5.094 4.985 5.092 2.75-.002 4.977-2.285 4.977-5.1.02-1.363-.502-2.675-1.445-3.637-.944-.961-2.228-1.49-3.559-1.463h.012zm0 8.196c-1.24.094-2.408-.598-2.947-1.745-.54-1.146-.339-2.513.506-3.447.844-.933 2.16-1.242 3.318-.78 1.157.463 1.92 1.604 1.924 2.876.038.795-.24 1.572-.769 2.155-.53.583-1.267.923-2.044.941h.012zM55.95 27.672v2.16h5.063c-.08 1.017-.492 1.977-1.172 2.724-1.024 1.068-2.441 1.644-3.902 1.584-3.107 0-5.626-2.579-5.626-5.76 0-3.181 2.519-5.76 5.626-5.76 1.427-.024 2.805.533 3.832 1.548l1.488-1.524c-1.4-1.452-3.315-2.262-5.309-2.244-2.837-.113-5.508 1.372-6.96 3.871-1.45 2.5-1.45 5.61 0 8.11 1.452 2.499 4.123 3.984 6.96 3.871 2.03.094 4-.716 5.403-2.22 1.228-1.381 1.884-3.197 1.829-5.064.003-.455-.036-.909-.118-1.356l-7.114.06zm53.104 1.68c-.626-1.885-2.323-3.179-4.266-3.252-1.296-.003-2.535.544-3.423 1.51-.889.966-1.346 2.266-1.265 3.59-.03 1.355.481 2.664 1.414 3.626.933.962 2.208 1.494 3.531 1.474 1.666.01 3.224-.838 4.15-2.256l-1.7-1.2c-.516.88-1.447 1.419-2.45 1.416-1.039.04-1.996-.573-2.414-1.548l6.669-2.82-.246-.54zm-6.798 1.704c-.048-.75.2-1.488.69-2.048.49-.56 1.179-.894 1.912-.928.773-.052 1.501.373 1.852 1.08l-4.454 1.896zM96.842 36h2.192V21h-2.192v15zm-3.586-8.76h-.082c-.668-.765-1.623-1.201-2.625-1.2-2.66.132-4.751 2.379-4.751 5.106s2.09 4.974 4.75 5.106c1.006.017 1.967-.422 2.626-1.2h.07v.732c0 1.956-1.02 3-2.66 3-1.118-.027-2.109-.743-2.508-1.812l-1.91.816c.735 1.832 2.483 3.024 4.418 3.012 2.567 0 4.688-1.548 4.688-5.316V26.4h-2.016v.84zm-2.508 7.056c-1.567-.141-2.769-1.485-2.769-3.096 0-1.61 1.202-2.955 2.769-3.096.757.04 1.467.39 1.968.974.5.583.75 1.348.692 2.122.065.778-.184 1.549-.689 2.133-.505.585-1.221.933-1.983.963h.012zM119.321 21h-5.239v15h2.192v-5.688h3.059c1.703.125 3.33-.734 4.22-2.226.888-1.492.888-3.368 0-4.86-.89-1.492-2.517-2.351-4.22-2.226h-.012zm0 7.2h-3.059v-5.112h3.106c1.389 0 2.514 1.152 2.514 2.574s-1.125 2.574-2.514 2.574l-.047-.036zm13.513-2.16c-1.63-.1-3.163.8-3.902 2.292l1.945.828c.392-.74 1.174-1.173 1.993-1.104.562-.067 1.126.1 1.567.463.441.363.72.892.777 1.469v.156c-.704-.382-1.49-.58-2.286-.576-2.098 0-4.219 1.2-4.219 3.372.042.936.452 1.814 1.136 2.436.684.621 1.585.933 2.497.864 1.124.083 2.203-.47 2.813-1.44h.07V36h2.11v-5.772c0-2.628-1.946-4.152-4.442-4.152l-.059-.036zm-.27 8.22c-.714 0-1.71-.372-1.71-1.272 0-1.2 1.242-1.596 2.344-1.596.696-.018 1.384.156 1.992.504-.151 1.343-1.246 2.367-2.566 2.4l-.06-.036zm12.46-7.86l-2.509 6.504h-.07l-2.602-6.504h-2.344l3.903 9.096-2.227 5.052h2.285l6.001-14.148h-2.438zM125.321 36h2.192V21h-2.192v15z"/>
        <path fill="#FFF" stroke="#FFF" stroke-width=".5" d="M55.576 12.288c.04.89-.277 1.757-.879 2.4-.672.715-1.61 1.103-2.578 1.068-1.486-.012-2.82-.935-3.385-2.341-.566-1.407-.252-3.024.795-4.103.68-.711 1.618-1.102 2.59-1.08.495-.002.986.1 1.441.3.424.175.802.45 1.102.804l-.621.636c-.474-.578-1.186-.893-1.922-.852-.74-.004-1.45.301-1.964.845-.516.543-.792 1.278-.767 2.035-.016 1.144.642 2.185 1.668 2.64 1.025.453 2.217.231 3.02-.564.36-.4.569-.92.586-1.464H52.12v-.864h3.41c.032.178.047.359.047.54h0zm5.368-3H57.78v2.28h2.883v.864H57.78v2.28h3.164v.888h-4.102V8.4h4.102v.888zm3.844 6.312h-.902V9.288h-1.97V8.4h4.888v.888h-2.016V15.6zm5.462 0V8.4h.902v7.2h-.902zm4.91 0h-.902V9.288h-1.969V8.4h4.829v.888H75.16V15.6zm11.11-.936c-1.425 1.452-3.73 1.452-5.156 0-1.383-1.499-1.383-3.841 0-5.34.682-.704 1.61-1.1 2.579-1.1.968 0 1.896.396 2.578 1.1 1.388 1.496 1.388 3.844 0 5.34h0zm-4.488-.6c1.057 1.077 2.765 1.077 3.82 0 1.038-1.171 1.038-2.957 0-4.128-1.055-1.077-2.763-1.077-3.82 0-1.037 1.171-1.037 2.957 0 4.128h0zM88.58 15.6V8.4h1.101l3.423 5.604V8.4h.902v7.2h-.937l-3.575-5.868V15.6h-.914z"/>
        <g>
            <path fill="url(#prefix__a)" d="M.688.648c-.382.47-.575 1.07-.54 1.68v26.544c-.035.61.158 1.21.54 1.68l.082.084L15.29 15.78v-.348L.77.564.688.648z" transform="translate(11.548 8.4)"/>
            <path fill="url(#prefix__b)" d="M20.096 20.736l-4.805-4.956v-.348l4.805-4.968.105.06 5.755 3.348c1.64.948 1.64 2.508 0 3.468l-5.731 3.336-.129.06z" transform="translate(11.548 8.4)"/>
            <path fill="url(#prefix__c)" d="M20.237 20.664L15.29 15.6.688 30.552c.69.621 1.714.651 2.437.072l17.123-9.96" transform="translate(11.548 8.4)"/>
            <path fill="url(#prefix__d)" d="M20.237 10.536L3.114.576C2.39-.004 1.366.027.676.648L15.291 15.6l4.946-5.064z" transform="translate(11.548 8.4)"/>
            <path fill="#000" d="M20.096 20.556l-16.982 9.9c-.695.532-1.65.532-2.344 0l-.082.084.082.084c.693.536 1.65.536 2.344 0l17.123-9.96-.141-.108z" opacity=".2" transform="translate(11.548 8.4)"/>
            <path fill="#000" d="M.688 30.384c-.382-.47-.575-1.07-.54-1.68v.18c-.035.61.158 1.21.54 1.68l.082-.084-.082-.096zM25.956 17.16l-5.86 3.396.105.108 5.755-3.336c.665-.32 1.112-.979 1.172-1.728-.134.678-.566 1.254-1.172 1.56z" opacity=".12" transform="translate(11.548 8.4)"/>
            <path fill="#FFF" d="M3.114.744L25.956 14.04c.606.306 1.038.882 1.172 1.56-.06-.75-.507-1.408-1.172-1.728L3.114.576C1.473-.372.137.42.137 2.34v.18C.172.588 1.485-.204 3.114.744z" opacity=".25" transform="translate(11.548 8.4)"/>
        </g>
    </g>
</svg>
